<svg xmlns="http://www.w3.org/2000/svg" viewBox="0 0 170.42 165.54"><defs><style>.cls-1{fill:none;stroke:#1d1d1b;stroke-miterlimit:10;stroke-width:2px;}</style></defs><g id="Capa_2" data-name="Capa 2"><g id="Capa_2-2" data-name="Capa 2"><path class="cls-1" d="M120.48,42.93s12.68-2.22,16.77-2.56c4.4-.37,12.12-.3,15.79-2.19,3.86-2,7.15-5.27,7.15-13.1,0-9.95-2.15-11.25-5.61-15.1-3.74-4.17-11.81-4.46-16-4.12-5.64.45-10.3,3-11.67,9.15-.62,2.78-.4,7.26.92,9.34a8,8,0,0,0,3.92,3.09,13.78,13.78,0,0,0,5.31.23,9.38,9.38,0,0,0,6.33-3.36c.88-1.32.63-3.95-1.83-4.11-2-.14-5.3,2.68-7.33,1.56-2.8-1.54-1.27-4.61-.3-5.91,1.52-2.06,4.73-2.75,7.17-2.53,2,.18,5.11,1.31,6.25,3.37a13.93,13.93,0,0,1,1.24,7.93c-.45,3.05-3.18,6.39-6.46,8.07-7,3.57-21.4,1.88-21.4,1.88Z"/><path class="cls-1" d="M119.62,50l.86-6.39S132,40.89,136.1,40.49c4.41-.44,14.29-1,18.48.76,4,1.63,10.54,5.35,13.07,10.52,1.91,3.89,2.87,11.62-.26,16.5-1.11,1.74-3.21,7.49-15.48,6.27-9.06-.89-9.12-5.58-11.86-9s-6-10.55-9.73-12.9C128.15,51.23,119.62,50,119.62,50Z"/><path class="cls-1" d="M131.75,53a105.47,105.47,0,0,1,10.55-2.82,55.82,55.82,0,0,1,9.76.08,7.69,7.69,0,0,1,4.12,2.36c1.76,1.8,5,6.89,2.44,11.23a6,6,0,0,1-2.86,2.29,8.87,8.87,0,0,1-5.45,0c-.93-.41-2.54-1.4-3.88-2-1.15-.47-3.12-1.41-4.83.3-.81.8-.45,2.65-.91,1.91,0,0-4.5-6.91-5.62-8.48C134.31,56.86,131.75,53,131.75,53Z"/><path class="cls-1" d="M137,76.88s2.8-2.27,3.1-4.78a18.85,18.85,0,0,0-.28-5.4,19.41,19.41,0,0,0-2.49-5.54c-1.43-2.36-4.64-7.13-7-8.55a17.25,17.25,0,0,0-6.24-1.49c-2.07,0-5.31-.57-6.8.25a2.73,2.73,0,0,0-1.34,2.51,3.6,3.6,0,0,0,2.14,2.95c2.14.82,5.71.64,7.18,1.09s2,1.45,4.21,3.48a16.54,16.54,0,0,1,3.86,6.38,58.9,58.9,0,0,1,.67,6.37l.13,1.77Z"/><path class="cls-1" d="M89.67,82.21a37.75,37.75,0,0,0,5.18-2.52c4.48-3.39,11.72-13.92,17.32-14.34,5.32-.4,6.88,1.1,8.31,2.75a8.82,8.82,0,0,1,1.83,7.13c-.36,3-3.31,8.33-5.64,10.18-1.22,1-4,3-6,1.08-1.61-1.55-.51-4.42.39-5.61,2.68-3.59,2.64-2.66,3.58-4.77.45-1,.44-3.29-.88-4.35s-3.68-.63-4.76.15c-2.66,1.92-4.55,8.73-6.49,11.37a18.79,18.79,0,0,1-6,4.88c-1.61.64-6.86,1.07-6.86,1.07Z"/><path class="cls-1" d="M125.26,57.92a20.48,20.48,0,0,1,5.89,5.51,20.46,20.46,0,0,1,2.34,5.37c.27,1.9.64,7.12.64,7.12a11.41,11.41,0,0,1,2.49.76,3.14,3.14,0,0,1,1.64,3.24,3.08,3.08,0,0,1-1.76,2.48c-1.2.53-4.09-.59-5.26,0-2.69,1.36-4.13,8.1-6.18,10.3-1.75,1.88-6.88,3.48-9.37,3.13-1.07-.15-2.35-1.15-3.68-1.89a13,13,0,0,0-2.16-.87c-1.46-.58-5.28-.49-6.81-.15a15.78,15.78,0,0,0-2.43,1c-.88.36-1.92,1.37-2.59,1.33-1.52-.08-5.22-3.33-5.22-3.33s.2-2.67.91-2.67c3.55,0,6.45-2.92,7.76-4.78,1.45-2.08,3.79-7.72,5.3-9.75,1-1.28,2.87-3.24,4.22-3.51a2.73,2.73,0,0,1,2.74.57c1.12.9,1.18,3.28.88,4.35-.56,2-4.23,4.93-4.61,7a4.8,4.8,0,0,0,1,3.71c1.91,1.71,4.58-.48,5.65-1.4,2.22-1.88,5.4-7.28,5.64-10.18.17-2-.75-6-2.13-7.47-.83-.91-4.24-2.47-4.24-2.47s.12-4.87,1.23-5.89C118.84,57.87,123.2,57,125.26,57.92Z"/><path class="cls-1" d="M119.62,96.66s6,8.18,9,9.54a7.52,7.52,0,0,0,7.33-1,5.07,5.07,0,0,0,1.78-5.27c-.4-1.66-3.24-3-4.13-4.46s0-4.71.12-6.27,1.32-6.71,1.32-6.71-3-.52-3.84-.12c-1.08.49-2.26,2.76-2.84,3.78-.91,1.59-2.15,5.13-3.34,6.52S119.62,96.66,119.62,96.66Z"/><path class="cls-1" d="M95.05,108.66A31.15,31.15,0,0,1,106,106.49a25.82,25.82,0,0,1,10.38,2.58s.44-8.9-.81-11.44-4.06-4.89-9.38-5.09a12.13,12.13,0,0,0-10.35,5.82C94.61,100.76,95.05,108.66,95.05,108.66Z"/><path class="cls-1" d="M108.36,120.34c-2.33-.87-6.53,1.65-8.81,6.11-1.72,3.34-3.79,11-5.31,14.27a48.83,48.83,0,0,1-7.17,9.83c-1.45,1.5-5.77,2.5-6.25,5.5-.38,2.36,1.47,6.24,5.8,7.62,3.26,1.05,9.42,1.48,11.21-.68s-.52-8.39-.46-11.2a11.36,11.36,0,0,1,1.65-6c1.83-3,8-12.08,9.56-15.4C110.19,126.85,111.39,121.47,108.36,120.34Z"/><path class="cls-1" d="M119.62,111.29c-2.59-2.69-9.14-4.78-13.83-4.8-3.73,0-9.51,1-12.94,3.89-3,2.54-4.57,7.83-4.57,12.24,0,5.35,6.37,11,8,12.46.71-1.12,1.62-6.24,4-9.9s5.43-6,8.08-4.84c2.11.91,2.63,3.77,1.23,7.31a64.92,64.92,0,0,1-5.15,9.71c1.21-.11,6.23-.64,7.18-.78,2.59-.39,7.16-2.68,8.92-4.69s2.82-4.59,3.15-9.33A17,17,0,0,0,119.62,111.29Z"/><path class="cls-1" d="M103.28,63.9a4.35,4.35,0,1,1-4.34-4.35A4.34,4.34,0,0,1,103.28,63.9Z"/><path class="cls-1" d="M60.45,102.09c-4.87-2-6.89-8.31-4.52-14.14S64.17,79,69,81s6.88,8.31,4.51,14.14S65.31,104.07,60.45,102.09Z"/><circle class="cls-1" cx="76.82" cy="82.25" r="3.95"/><circle class="cls-1" cx="76.82" cy="98.28" r="4.06"/><path class="cls-1" d="M113.85,39.34c.24-2.73,1.08-4.73,0-6s-1.22-1.65-1.29-2.75a2.23,2.23,0,0,1,1.14-2.44,5.11,5.11,0,0,1,5.19.76c.65.6,2,2.06,1.17,9.08-.32,2.58.43,7.25-2.54,10.37a4.74,4.74,0,0,1-4.89.84c-1.75-.73-3.23-.91-2.73-2.67.45-1.57,1.75-1.14,2.89-3.58A10,10,0,0,0,113.85,39.34Z"/><path class="cls-1" d="M107.59,59.94c.45,1.92,2.41,5,6.14,4,3.46-.92,3-5.56,2.56-7.24-.54-2.11-3.26-5.78-5-7.13a21.17,21.17,0,0,0-9.76-3.4c-3.47,0-10.26,2-13.43,3.4C84,51.34,76.3,57.06,71.82,56.73c-3.13-.23-4.2-2.82-3.13-5.26s6-5.38,8.77-5.64,8.81,2,11.75,2c3.18,0,8.58-2.1,11.75-2.19,5.72-.18,4.76,1,7.55.43,4-.73,5.27-2.56,5.56-8.42.18-3.55-1.91-5.68-8-5.87-7-.21-10.21,3.39-10.33-1.59-.1-4.42,2.45-2.69,4.35-2.42,2.69.38,13.41.57,17-.38a5.74,5.74,0,0,0,4-3.66c.84-1.91.92-4.87-1.14-6.64-1-.83-2.94-2.11-5-1.2a3,3,0,0,0-1.69,3.53c.43,2.35,2.73,2.18,2.49,3.2-.35,1.44-7.94,1.11-7.94,1.11l-6.94-.81s-.59-3.68-3.16-4.19c-4.35-.87-4.85,4.46-4.85,4.46S87.55,23.81,86,23c-1.88-1-.33-3.21-4.58-5.49-3.13-1.68-9.23.84-10.6,3.43-.9,1.7-2.06,5-.16,7.7a5.07,5.07,0,0,0,4.89,2.14c.32-.07,3.12-.23,2.82-3.05a3,3,0,0,0-2.9-2.37c-.7,0-2.6.84-2.5-1.4s2.87-2.3,3.84-2.11c1.28.26,3.44,2.47,4,3.67a7.85,7.85,0,0,1,0,5.76c-1,2.14-2.77,3.39-6.36,3.85a25.23,25.23,0,0,1-5.72-.61c-1.77-.34-6-2.3-7.92,1.52-1.75,3.51,3,1.6,4.64,3.21a5.33,5.33,0,0,1,.92,5.56,32.19,32.19,0,0,1-3.21,5.57A9.52,9.52,0,0,0,62,58c1,4.06,5.42,5.22,9.23,5.4A23.55,23.55,0,0,0,85.4,59c3.63-2.87,10.92-6.83,15.1-7.17,1.83-.16,4.76.47,5.49,1.67C107.62,56.12,106.92,57.05,107.59,59.94Z"/><path class="cls-1" d="M80.36,41.51c0,2.4-1.94,2.87-4.35,2.87s-4.32-.47-4.32-2.87,1.62-2.87,4-2.87S80.34,39.1,80.36,41.51Z"/><path class="cls-1" d="M87.77,62.65c1.09,2.13-.45,3.44-2.6,4.52S81.1,68.69,80,66.55s.22-3.57,2.36-4.66S86.67,60.51,87.77,62.65Z"/><path class="cls-1" d="M61.61,65c-2.1,1.16-3.45-.34-4.6-2.45s-1.66-4,.45-5.17,3.17.14,4.44,2.16C62.93,61.21,63.71,63.87,61.61,65Z"/><path class="cls-1" d="M21.23,49.94a3.86,3.86,0,0,0,5.12,0c1.48-1.71.28-2.68,2.12-2.29,4.6,1,7.94,11.08,13.24,17.77C45.6,70.36,55.67,78,59.47,79c1.45.37,4.67,1.38,5.87-.67S65,74.42,64,73.53c-2.21-2-14.59-8.3-18.22-12.31-3.85-4.25-8.1-15.6-13.16-18.29-1.92-1-6.32-1.15-8.49-.32a6.08,6.08,0,0,0-3.29,2.52A3.64,3.64,0,0,0,21.23,49.94Z"/><path class="cls-1" d="M64.74,80.17a37.52,37.52,0,0,1,2.37-5.38c1.71-2.06,4-3.14,10.81-3.14,7.9,0,10.1,2.65,10.82,5.61l-.18,21.65a20.64,20.64,0,0,0-3.35.27c-1,.25-5,1.84-5,1.84s2-3.37-.57-5.71-5.35-.17-5.35-.17l.87-5.59-.27-3.35a11.94,11.94,0,0,0,3.86-.49c1.61-.62,2.3-2.34,2-4.24a4.14,4.14,0,0,0-2.34-3.17A4.25,4.25,0,0,0,74,79c-1.15,1-1.6,3.71-1.6,3.71a32.57,32.57,0,0,0-3.89-1.95A14.41,14.41,0,0,0,64.74,80.17Z"/><path class="cls-1" d="M51.78,51.62c2.66,1.72,9.71,3.28,10.38-.6S57.28,48.25,54,45.83c-3.13-2.29-3.65-5.92-3.74-8.17a7.86,7.86,0,0,1,1.68-5.34c3.63-4.54,12.43-8,12.83-13.12.52-6.7-6.71-9.45-11.15-9-8.5.88-11.11,9.06-15,7.33-1.2-.54-1.67-4.07-1.33-5.34,1-3.74,1.67-4.32,1.52-6.42-.23-3.27-3.3-5.71-4.58-4.41-.93,1,1.81,1,2.14,4.41.27,2.9-3.2,7.79-2.21,12.29A5.16,5.16,0,0,0,37.37,22c3.28,1.21,5.49-.85,7.37-1.85,1.52-.81,6.52-3.61,8.16-4.15,3.82-1.27,5.61.65,5.72,3.16.19,4.12-10.07,7.93-12,10.83a19.52,19.52,0,0,0-2.75,8.68,14.56,14.56,0,0,0,2.45,8.18C47.22,48.36,50.25,50.64,51.78,51.62Z"/><path class="cls-1" d="M66.73,43a4.35,4.35,0,1,1-4.35-4.34A4.35,4.35,0,0,1,66.73,43Z"/><path class="cls-1" d="M61.39,119.64c-.3,2.24,2.43,5.32,7.61,4a15.94,15.94,0,0,0,9.62-7.45c2.06-3.23,1.92-7.78,4-10,1-1.07,3.83-1.91,5-1.07,1.53,1.07,2.29,4.06,1,4.53-1.67.63-2.13-2.16-3-3.24A2.25,2.25,0,0,0,82,107.87c-.25,1.52,1,4.62,2.68,5.6,3.19,1.81,5,.22,6.9-1.72s2.8-6.18,1.26-8.7c-1.07-1.73-3.86-4.24-6.84-3.84-4.81.64-6.84,5.07-7.81,7.54-2.26,5.79-3.19,6.36-5.3,9C67.81,122,62.07,114.55,61.39,119.64Z"/><path class="cls-1" d="M71.17,110c-2.36.34-1.23,3.36-4.27,2.57-3.22-.84-1.4-3.51.38-3.78,2.17-.31,3.1.68,5.64,1.21a2.92,2.92,0,0,0,3.48-1.36c.91-1.75-.22-3.2-2.41-4.5s-4.58-1.43-7.74-.53c-2.67.76-6.6,4-6.6,7.82,0,1.29.59,3.51,3.22,5.58,2.48,1.94,6.43,1.25,8.21.34C74.4,115.63,75.4,109.36,71.17,110Z"/><path class="cls-1" d="M59.9,109.91s-8.54.88-10.87-.51a5,5,0,0,1-2.17-4.75c.4-3,2.66-3.85,4.46-4.11a47.65,47.65,0,0,1,5.69-.35,28.15,28.15,0,0,0,2.81,2.17c.89.47,5.29.92,5.29.92s-3.62,2.91-4.24,4A18.34,18.34,0,0,0,59.9,109.91Z"/><path class="cls-1" d="M43.82,153.51c.06-4.58,4.21-7.67,7.16-9.27,4.52-2.46,15.57-1,16.3-4.75.4-2-2.8-3.14-6.64-3-4.37.13-13.29,3.84-14.38.75-.66-1.86,3.16-3.11,4.29-3.81,1.69-1.05,4.45-2.39,4.64-6.51a5.51,5.51,0,0,0-4.21-5.7c-3.41-1-6.35,3.78-4.72,2.61s1.68-2.68,3.57-2.74c4.23-.11,5.49,3.92,5.35,6-.2,3-3.17,4.93-4.47,6a4.1,4.1,0,0,1-3.89,1.13c-1.23-.22-2.14-1.89-3.88-1.82-2.89.12-4.44,6.24-9.64,4.22-3.78-1.46-3.81-7.68-3.43-10.64.51-4.07,4.37-7.09,7.49-8.52,4.86-2.23,11.33.2,13.94-2.68,1.45-1.61-1.13-4.75.19-4.61a44,44,0,0,0,7.61-.2c1.14-.23-.09,2,.71,4s3.58,3.34,3.58,3.34-1.54.08-2,2.28a4.21,4.21,0,0,0,1.62,4c1.64,1.41,5.3,1.6,5.3,1.6C68.33,127.2,63,130,63,130a20.08,20.08,0,0,1,4-1.15c4.61-.39,5.92.82,7.45,1.64,2.48,1.33,4.6,4.34,4.43,8.89-.16,4-2.66,8-5,10.81a26.36,26.36,0,0,1-13,9.1c-2.55.79-10.29,1.4-12.82.57C45.83,159.15,43.78,157.26,43.82,153.51Z"/><path class="cls-1" d="M36.26,75.21c.17,0,1.54.19,1.58,0a14.17,14.17,0,0,1,1.27-4.28c2.42-5.53,5.23-2.63,3.17-4.84a38.06,38.06,0,0,1-2.92-4.21,10.57,10.57,0,0,0-3.54,2.75,24.42,24.42,0,0,0-3.21,6.13C32,74.09,35.21,75,36.26,75.21Z"/><path class="cls-1" d="M52,86.49c1.79,0,.1-3.06.8-5.25,1.65-5.23,2.39-4.1,0-5.95-1-.78-4.38-3-4.38-3A28,28,0,0,0,47,76.32,23.77,23.77,0,0,0,46.27,83C47,86.94,50.8,86.49,52,86.49Z"/><path class="cls-1" d="M71.74,127.77c-1.28,0-2.74.16-2.74-1.51,0-1.86,3-1.08,3.51-1.64s.34-1.91,1.67-2.17c2.69-.54,2.31,2.5,2.37,3.84,0,.94,0,3.4-2.33,3.06-1.28-.19-.34-1.14-1.81-1.49a2.74,2.74,0,0,0-.67-.09"/><path class="cls-1" d="M77.06,152.37c3.07,3.37,10.57-2.38,12.76-5s6.18-8.84,5.68-12c-.45-2.88-5.67-4.6-6.88-10.45-1.31-6.35,1.07-9,1.7-11.56a6,6,0,0,1-4.77.84c-1.68-.35-3.9-4.66-3.9-4.66s-2.25,5.92-2.65,6.86a23,23,0,0,0-1.53,5.08,42.72,42.72,0,0,0,.18,10c.3,2.63,1.95,5.34,1,9.67C77.59,145.76,74.09,149.1,77.06,152.37Z"/><path class="cls-1" d="M27.75,46.82c-.84.39-.12,1.86-1.59,3.26-2.21,2.09-4.63,0-5.68.51a6.26,6.26,0,0,0-2.86,4.29,5.72,5.72,0,0,0,6.2,6.28c3.61-.41,4.44-1.93,4.6-3.24s.44-3,.47-4.37c.14-4.71-.67-5.56-.51-6.22a34.65,34.65,0,0,1,.51,6.22,25.66,25.66,0,0,0,0,5.11c1,4.72,5.48,4.1,7.31,3.46a14.93,14.93,0,0,0,2.37-1.27,50.71,50.71,0,0,1-3.06-5.27c-.7-1.85-2.19-3.57-4.35-6.28C30.51,48.49,28.69,46.37,27.75,46.82Z"/><path class="cls-1" d="M13.72,18.34c-1.93,1.43-3.46.11-4.87-1.83s-2.16-3.77-.22-5.18,3.16-.28,4.68,1.56C14.54,14.37,15.66,16.92,13.72,18.34Z"/><path class="cls-1" d="M1.76,47.79c-1.6-1.79-.44-3.44,1.37-5s3.55-2.5,5.14-.69.57,3.12-1.12,4.8C5.78,48.23,3.35,49.58,1.76,47.79Z"/><path class="cls-1" d="M24.89,37.55C19.7,37.62,16,49,11.05,50.68c-2.25.78-9-1.25-9.79-3.51-.95-2.92.85-9.46,3.11-11,2.49-1.73,8.22-.44,11.19-1,2.19-.42,6-3.52,9.67-3.29,2.43.15,7.9,3.43,7.61,3.32,0,0-11.54-7.61-16.07-9.5-2.92-1.22-10.3-.26-12-2.92S6,13.15,8.53,11s9.25-3.2,12-1.25c2.2,1.53,1.53,8.08,3.05,10.29,2.24,3.26,8.6,9.47,12.55,9.61,2.05.08,5.35-3.5,7.21-4,2.23-.55,7,.82,7.07,1,0,0-6.84,3.69-6.56,13.29.17,6.06,5.17,10.1,8.46,12a10.82,10.82,0,0,0,9.41.93,8.2,8.2,0,0,0,1.6,7.72c2.71,3.18,5.61,2.92,10,2.67a23,23,0,0,0,9.52-2.87c4.53-2.51,9-6.18,15.2-8.12,3.36-1.05,6.31-.62,7.67.92,1.92,2.2,1.42,5.85,2.13,7.61a6.63,6.63,0,0,0,4.18,3.83A30.06,30.06,0,0,0,102,72.53c-2.26,2.78-6.7,7-8.44,7.92-2,1-4.82,2.22-4.82,2.22V77.26c-2-5.61-8-5.55-10.21-5.61C67.47,71.34,66.17,76,66.17,76s-2.61-3.34-4.88-4.26c-1.88-.76-6-3.17-7-3.7-2.57-1.46-6.69-4-8.48-6.18-3.14-3.79-7.67-13.76-11.06-17.23C33.42,43.29,29.11,37.49,24.89,37.55Z"/></g></g></svg>