<svg xmlns="http://www.w3.org/2000/svg" viewBox="0 0 241.31 243.78"><defs><style>.cls-1,.cls-3{fill:none;stroke:#1d1d1b;}.cls-1,.cls-2,.cls-3{stroke-miterlimit:10;}.cls-1{stroke-width:2px;}.cls-2{fill:#1d1d1b;stroke:#fff;}</style></defs><g id="Capa_2" data-name="Capa 2"><g id="Capa_1-2" data-name="Capa 1"><path class="cls-1" d="M241.07,112.91a14.56,14.56,0,0,1-5.76-28.55"/><path class="cls-1" d="M240.31,108.73a10.39,10.39,0,1,1-4.11-20.36"/><path class="cls-1" d="M239.46,104.92a6.41,6.41,0,0,1-2.54-12.56"/><polygon class="cls-1" points="225.86 86.21 232.33 82.06 226.1 80.07 225.86 86.21"/><polygon class="cls-1" points="220.84 95.6 223.94 88.56 217.64 90.35 220.84 95.6"/><polygon class="cls-1" points="228.93 114.28 223.45 108.89 222.89 115.4 228.93 114.28"/><polygon class="cls-1" points="239.33 116.07 231.66 115.58 235.49 120.88 239.33 116.07"/><polygon class="cls-1" points="222.06 106.5 220.57 98.95 216.43 104.02 222.06 106.5"/><path class="cls-2" d="M158.73,81.4s13.46-2.36,17.81-2.72c4.68-.39,12.88-.32,16.77-2.33,4.11-2.11,7.6-5.59,7.6-13.91,0-10.57-2.29-11.95-6-16-4-4.43-12.55-4.74-17-4.38-6,.49-10.94,3.17-12.4,9.73-.65,2.95-.42,7.71,1,9.92A8.5,8.5,0,0,0,170.68,65a14.66,14.66,0,0,0,5.63.24A10,10,0,0,0,183,61.62c.94-1.4.67-4.2-1.95-4.37-2.12-.14-5.62,2.85-7.78,1.66-3-1.64-1.35-4.89-.32-6.28,1.62-2.19,5-2.92,7.62-2.69,2.15.2,5.43,1.39,6.64,3.58A14.89,14.89,0,0,1,188.57,62c-.49,3.24-3.38,6.79-6.87,8.57-7.42,3.8-22.73,2-22.73,2Z"/><path class="cls-2" d="M157.81,89l.92-6.79s12.28-2.93,16.59-3.35c4.68-.47,15.18-1,19.63.8,4.24,1.74,11.2,5.69,13.89,11.18,2,4.13,3,12.34-.28,17.53-1.18,1.85-3.41,8-16.45,6.67-9.62-1-9.68-5.93-12.6-9.61s-6.41-11.2-10.33-13.69C166.87,90.22,157.81,89,157.81,89Z"/><path class="cls-2" d="M170.7,92.13a111.32,111.32,0,0,1,11.2-3,59,59,0,0,1,10.38.08,8.14,8.14,0,0,1,4.37,2.51c1.87,1.91,5.27,7.31,2.59,11.93a6.34,6.34,0,0,1-3,2.43,9.47,9.47,0,0,1-5.8,0c-1-.44-2.69-1.49-4.12-2.08-1.22-.51-3.31-1.5-5.13.31-.86.85-.48,2.82-1,2,0,0-4.78-7.33-6-9C173.41,96.2,170.7,92.13,170.7,92.13Z"/><path class="cls-2" d="M176.29,117.47s3-2.42,3.28-5.08a19.77,19.77,0,0,0-.29-5.74,20.46,20.46,0,0,0-2.65-5.88c-1.52-2.51-4.92-7.58-7.45-9.08a18.07,18.07,0,0,0-6.63-1.59c-2.2-.06-5.64-.61-7.23.26A2.93,2.93,0,0,0,153.9,93a3.85,3.85,0,0,0,2.28,3.13c2.26.86,6.06.68,7.62,1.15s2.15,1.55,4.47,3.7a17.56,17.56,0,0,1,4.1,6.78,61.09,61.09,0,0,1,.71,6.77l.14,1.88Z"/><path class="cls-2" d="M126,123.13a40.87,40.87,0,0,0,5.51-2.67c4.76-3.61,12.44-14.79,18.39-15.24,5.66-.42,7.31,1.16,8.84,2.92a9.34,9.34,0,0,1,1.94,7.57c-.39,3.14-3.52,8.86-6,10.82-1.3,1-4.3,3.17-6.41,1.15-1.71-1.65-.54-4.7.41-6,2.86-3.8,2.81-2.81,3.81-5.06.47-1.06.47-3.5-.93-4.62s-3.92-.67-5.07.16c-2.82,2-4.83,9.27-6.89,12.07a20,20,0,0,1-6.32,5.19c-1.71.68-7.29,1.13-7.29,1.13Z"/><path class="cls-2" d="M163.8,97.32a18.32,18.32,0,0,1,8.75,11.57c.29,2,.67,7.56.67,7.56a11.82,11.82,0,0,1,2.65.8,3.35,3.35,0,0,1,1.74,3.45,3.24,3.24,0,0,1-1.87,2.63c-1.27.57-4.34-.63-5.59,0-2.85,1.44-4.38,8.6-6.56,10.94-1.86,2-7.31,3.7-10,3.33-1.14-.16-2.5-1.22-3.91-2a14.56,14.56,0,0,0-2.3-.93c-1.55-.61-5.6-.51-7.24-.15a16.89,16.89,0,0,0-2.57,1c-.94.39-2,1.46-2.76,1.43-1.61-.09-5.55-3.55-5.55-3.55s.23-2.84,1-2.84c3.77,0,6.86-3.09,8.25-5.07,1.54-2.21,4-8.21,5.63-10.36,1-1.36,3.05-3.45,4.48-3.73a2.92,2.92,0,0,1,2.92.61c1.18,1,1.24,3.48.93,4.62-.6,2.14-4.49,5.24-4.9,7.42a5,5,0,0,0,1.09,3.94c2,1.82,4.86-.51,6-1.48,2.35-2,5.74-7.73,6-10.82.18-2.15-.8-6.33-2.26-7.93-.89-1-4.51-2.63-4.51-2.63s.13-5.17,1.3-6.25C157,97.27,161.61,96.32,163.8,97.32Z"/><path class="cls-2" d="M157.81,138.48s6.43,8.69,9.61,10.13a7.94,7.94,0,0,0,7.78-1,5.38,5.38,0,0,0,1.89-5.59c-.43-1.76-3.44-3.19-4.38-4.74s-.06-5,.12-6.67,1.4-7.12,1.4-7.12-3.15-.55-4.08-.13c-1.14.52-2.39,2.93-3,4-1,1.69-2.28,5.44-3.54,6.92S157.81,138.48,157.81,138.48Z"/><path class="cls-2" d="M131.7,151.23a33.08,33.08,0,0,1,11.63-2.31,27.42,27.42,0,0,1,11,2.75s.47-9.47-.87-12.16-4.3-5.2-10-5.41a12.93,12.93,0,0,0-11,6.19C131.24,142.84,131.7,151.23,131.7,151.23Z"/><path class="cls-2" d="M145.84,163.64c-2.46-.93-6.93,1.75-9.36,6.49-1.82,3.55-4,11.74-5.63,15.15a52,52,0,0,1-7.62,10.46c-1.54,1.58-6.13,2.65-6.64,5.83-.4,2.51,1.56,6.63,6.16,8.1,3.46,1.12,10,1.57,11.91-.73s-.55-8.91-.49-11.89a12.17,12.17,0,0,1,1.75-6.43c2-3.15,8.55-12.84,10.17-16.36C147.79,170.55,149.06,164.84,145.84,163.64Z"/><path class="cls-2" d="M157.81,154c-2.75-2.85-9.71-5.07-14.69-5.1-4,0-10.1,1.09-13.75,4.13-3.24,2.7-4.86,8.33-4.86,13,0,5.69,6.77,11.67,8.56,13.24.76-1.2,1.71-6.64,4.19-10.52,2.39-3.73,5.77-6.35,8.58-5.14,2.25,1,2.8,4,1.32,7.77a69.87,69.87,0,0,1-5.48,10.31c1.29-.12,6.62-.68,7.63-.83,2.75-.42,7.6-2.84,9.48-5s3-4.87,3.34-9.9A18,18,0,0,0,157.81,154Z"/><path class="cls-2" d="M140.45,103.67a4.62,4.62,0,1,1-4.61-4.62A4.61,4.61,0,0,1,140.45,103.67Z"/><path class="cls-2" d="M95,144.25c-5.17-2.11-7.32-8.83-4.8-15s8.75-9.51,13.92-7.41,7.32,8.83,4.8,15S100.12,146.35,95,144.25Z"/><circle class="cls-2" cx="112.35" cy="123.17" r="4.19"/><circle class="cls-2" cx="112.35" cy="140.2" r="4.32"/><path class="cls-2" d="M151.68,77.59c.26-2.9,1.15-5,0-6.4s-1.3-1.75-1.37-2.92.22-2.17,1.21-2.59a5.42,5.42,0,0,1,5.51.81c.7.63,2.17,2.18,1.24,9.64-.34,2.74.47,7.7-2.7,11a5,5,0,0,1-5.18.89c-1.86-.78-3.44-1-2.91-2.83.48-1.67,1.86-1.22,3.07-3.81A10.66,10.66,0,0,0,151.68,77.59Z"/><path class="cls-2" d="M145,99.47c.48,2,2.56,5.26,6.53,4.2,3.66-1,3.17-5.9,2.71-7.69-.57-2.23-3.46-6.13-5.27-7.57-2.17-1.74-7.59-3.57-10.37-3.61-3.68,0-10.9,2.12-14.26,3.61-4.37,1.93-12.58,8-17.34,7.65-3.32-.24-4.46-3-3.32-5.59,1.2-2.75,6.32-5.71,9.31-6s9.36,2.07,12.48,2.1c3.38,0,9.12-2.22,12.49-2.32,6.07-.19,5,1,8,.46,4.2-.78,5.6-2.73,5.9-9,.19-3.78-2-6-8.53-6.23-7.42-.23-10.85,3.59-11-1.7C132.3,63.15,135,65,137,65.27c2.86.4,14.25.61,18.11-.4A6.1,6.1,0,0,0,159.4,61c.89-2,1-5.17-1.22-7-1-.88-3.12-2.24-5.37-1.28A3.21,3.21,0,0,0,151,56.41c.46,2.48,2.9,2.31,2.64,3.39-.36,1.53-8.42,1.18-8.42,1.18l-7.38-.85s-.63-3.91-3.36-4.46c-4.61-.92-5.15,4.74-5.15,4.74s-5.61.67-7.25-.16c-2-1-.34-3.41-4.86-5.84-3.32-1.78-9.81.89-11.27,3.65-1,1.81-2.18,5.35-.16,8.18A5.35,5.35,0,0,0,111,68.51c.34-.07,3.32-.24,3-3.24a3.19,3.19,0,0,0-3.08-2.51c-.75,0-2.77.89-2.66-1.49s3-2.45,4.09-2.24c1.35.27,3.65,2.62,4.19,3.89a8.42,8.42,0,0,1,0,6.13c-1.05,2.27-3,3.6-6.76,4.08a26,26,0,0,1-6.07-.65c-1.89-.36-6.39-2.44-8.42,1.62-1.86,3.73,3.23,1.71,4.93,3.41a5.64,5.64,0,0,1,1,5.91,34.22,34.22,0,0,1-3.4,5.92,10.08,10.08,0,0,0-1.22,8c1.08,4.31,5.77,5.54,9.81,5.73a24.86,24.86,0,0,0,15.07-4.68c3.86-3,11.61-7.24,16-7.61,1.94-.17,5.05.5,5.83,1.78C145.06,95.42,144.32,96.4,145,99.47Z"/><path class="cls-2" d="M116.1,79.89c0,2.55-2.06,3-4.61,3s-4.59-.5-4.59-3,1.71-3,4.26-3S116.09,77.34,116.1,79.89Z"/><path class="cls-2" d="M124,102.35c1.16,2.27-.48,3.65-2.75,4.8s-4.33,1.62-5.47-.66.23-3.79,2.5-4.95S122.8,100.08,124,102.35Z"/><path class="cls-2" d="M96.18,104.89c-2.23,1.23-3.67-.36-4.89-2.6s-1.75-4.27.49-5.49,3.36.14,4.71,2.29C97.58,100.82,98.41,103.65,96.18,104.89Z"/><path class="cls-2" d="M53.28,88.84c1.58,1.49,4.37,1.28,5.44,0C60.29,87.05,59,86,61,86.44c4.88,1,8.43,11.77,14.06,18.88,4.13,5.22,14.83,13.33,18.87,14.37,1.54.39,5,1.46,6.23-.71s-.36-4.13-1.43-5.07c-2.35-2.08-15.5-8.82-19.36-13.08-4.08-4.51-8.6-16.58-14-19.43-2-1.09-6.72-1.22-9-.34a6.42,6.42,0,0,0-3.49,2.68A3.86,3.86,0,0,0,53.28,88.84Z"/><path class="cls-2" d="M99.51,121s1.77-4.82,2.51-5.71c1.83-2.19,4.2-3.34,11.49-3.34,8.39,0,10.73,2.81,11.5,6l-.19,23a21.41,21.41,0,0,0-3.57.28c-1.11.26-5.35,2-5.35,2s2.11-3.58-.61-6.06-5.68-.18-5.68-.18l.92-5.94-.28-3.56a12.85,12.85,0,0,0,4.1-.52c1.71-.66,2.44-2.48,2.07-4.5a4.38,4.38,0,0,0-2.48-3.37,4.52,4.52,0,0,0-4.56.77c-1.23,1-1.7,4-1.7,4a34.35,34.35,0,0,0-4.13-2.08A15.16,15.16,0,0,0,99.51,121Z"/><path class="cls-2" d="M85.74,90.63c2.82,1.83,10.31,3.48,11-.63s-5.18-3-8.7-5.52c-3.33-2.43-3.88-6.29-4-8.67a8.28,8.28,0,0,1,1.78-5.68c3.86-4.82,13.21-8.47,13.63-13.93.55-7.12-7.13-10.05-11.85-9.57-9,.93-11.8,9.63-15.92,7.78-1.28-.57-1.78-4.32-1.42-5.67,1.05-4,1.78-4.58,1.62-6.81-.24-3.48-3.51-6.08-4.86-4.7-1,1,1.92,1,2.27,4.7C69.64,45,65.94,50.2,67,55a5.5,5.5,0,0,0,3.43,4.16c3.49,1.28,5.83-.91,7.83-2,1.62-.86,6.93-3.84,8.66-4.41,4.06-1.35,6,.69,6.09,3.35.2,4.39-10.7,8.43-12.8,11.51a20.73,20.73,0,0,0-2.92,9.22,15.35,15.35,0,0,0,2.59,8.69C80.9,87.16,84.12,89.59,85.74,90.63Z"/><path class="cls-2" d="M101.62,81.46A4.62,4.62,0,1,1,97,76.84,4.62,4.62,0,0,1,101.62,81.46Z"/><path class="cls-2" d="M96,162.9c-.32,2.37,2.58,5.64,8.08,4.24a16.87,16.87,0,0,0,10.22-7.91c2.19-3.44,2-8.26,4.29-10.65,1.07-1.13,4.08-2,5.35-1.13,1.62,1.13,2.44,4.31,1.12,4.81-1.78.67-2.26-2.29-3.22-3.45a2.39,2.39,0,0,0-4,1.58c-.27,1.62,1,4.91,2.85,6,3.38,1.92,5.34.24,7.33-1.83s3-6.56,1.33-9.24c-1.13-1.84-4.1-4.51-7.26-4.08-5.11.68-7.27,5.39-8.3,8-2.4,6.15-3.39,6.76-5.62,9.55C102.77,165.44,96.68,157.49,96,162.9Z"/><path class="cls-2" d="M106.34,152.61c-2.51.36-1.31,3.57-4.54,2.73-3.42-.89-1.49-3.73.41-4,2.31-.34,3.29.72,6,1.28a3.1,3.1,0,0,0,3.69-1.44c1-1.87-.23-3.41-2.55-4.78s-4.87-1.53-8.23-.57c-2.83.81-7,4.29-7,8.3,0,1.38.63,3.74,3.42,5.93s6.83,1.33,8.73.37C109.77,158.64,110.84,152,106.34,152.61Z"/><path class="cls-2" d="M94.37,152.55s-9.08.94-11.55-.53A5.39,5.39,0,0,1,80.51,147c.43-3.19,2.83-4.09,4.74-4.37a51,51,0,0,1,6-.37,28.76,28.76,0,0,0,3,2.3c1,.51,5.62,1,5.62,1s-3.84,3.1-4.5,4.2A18.74,18.74,0,0,0,94.37,152.55Z"/><path class="cls-2" d="M77.29,198.88c.06-4.87,4.47-8.15,7.6-9.85,4.8-2.61,16.54-1.11,17.32-5,.42-2.16-3-3.35-7-3.23-4.65.14-14.13,4.08-15.29.79-.7-2,3.37-3.29,4.56-4,1.79-1.11,4.73-2.54,4.93-6.91a5.84,5.84,0,0,0-4.47-6.06c-3.62-1-6.75,4-5,2.77s1.78-2.85,3.79-2.9c4.49-.13,5.83,4.16,5.68,6.4-.21,3.16-3.36,5.24-4.75,6.39a4.34,4.34,0,0,1-4.13,1.19c-1.3-.23-2.27-2-4.12-1.93-3.07.13-4.72,6.63-10.24,4.49-4-1.56-4-8.16-3.65-11.31.55-4.32,4.65-7.53,8-9,5.17-2.37,12,.21,14.81-2.85,1.54-1.71-1.2-5,.2-4.89a47.54,47.54,0,0,0,8.09-.22c1.2-.24-.1,2.08.75,4.29s3.8,3.55,3.8,3.55-1.63.09-2.12,2.43a4.45,4.45,0,0,0,1.72,4.27c1.74,1.5,5.63,1.7,5.63,1.7,0,2-5.67,5-5.67,5a20.33,20.33,0,0,1,4.23-1.22c4.9-.41,6.3.87,7.92,1.74,2.64,1.41,4.89,4.61,4.7,9.44-.16,4.29-2.82,8.45-5.34,11.49A28,28,0,0,1,95.34,205c-2.71.84-10.92,1.5-13.61.61C79.42,204.86,77.24,202.86,77.29,198.88Z"/><path class="cls-2" d="M69.25,115.7c.19,0,1.64.19,1.68,0a15,15,0,0,1,1.36-4.55c2.56-5.88,5.55-2.8,3.36-5.15a38.77,38.77,0,0,1-3.1-4.47,11.36,11.36,0,0,0-3.77,2.93c-.9,1.16-3.14,5.06-3.4,6.5C64.74,114.51,68.13,115.48,69.25,115.7Z"/><path class="cls-2" d="M86,127.67c1.9,0,.11-3.24.85-5.57,1.76-5.56,2.54-4.36,0-6.32-1.09-.83-4.65-3.23-4.65-3.23a30.05,30.05,0,0,0-1.46,4.32,25.64,25.64,0,0,0-.76,7.07C80.62,128.16,84.69,127.67,86,127.67Z"/><path class="cls-2" d="M107,171.53c-1.37,0-2.92.17-2.92-1.6,0-2,3.18-1.15,3.73-1.75s.36-2,1.78-2.31c2.85-.57,2.45,2.67,2.51,4.09,0,1,0,3.61-2.47,3.25-1.36-.2-.36-1.22-1.92-1.58a2.64,2.64,0,0,0-.71-.1"/><path class="cls-2" d="M112.6,197.66c3.26,3.59,11.23-2.52,13.55-5.33,2.2-2.65,6.57-9.39,6-12.8-.49-3.06-6-4.89-7.32-11.1-1.39-6.74,1.15-9.56,1.81-12.28a6.38,6.38,0,0,1-5.07.89c-1.78-.38-4.14-4.95-4.14-4.95s-2.38,6.29-2.81,7.28a23.38,23.38,0,0,0-1.62,5.4,44.33,44.33,0,0,0,.19,10.67c.31,2.8,2.07,5.67,1,10.27C113.15,190.64,109.44,194.19,112.6,197.66Z"/><path class="cls-2" d="M60.21,85.53c-.89.42-.12,2-1.69,3.46-2.35,2.23-4.92,0-6,.55a6.63,6.63,0,0,0-3,4.56A6.07,6.07,0,0,0,56,100.76c3.83-.43,4.72-2,4.88-3.44s.47-3.21.51-4.63c.14-5-.72-5.91-.55-6.61a36.75,36.75,0,0,1,.55,6.61,25.84,25.84,0,0,0,0,5.42c1.06,5,5.82,4.35,7.76,3.68a16.92,16.92,0,0,0,2.52-1.36,53.68,53.68,0,0,1-3.25-5.59c-.75-2-2.33-3.79-4.63-6.67C63.14,87.31,61.21,85.06,60.21,85.53Z"/><path class="cls-2" d="M45.31,55.28c-2.05,1.51-3.68.12-5.18-2s-2.29-4-.23-5.5,3.36-.3,5,1.66C46.18,51.06,47.37,53.76,45.31,55.28Z"/><path class="cls-2" d="M32.6,86.56c-1.7-1.9-.46-3.65,1.45-5.34s3.78-2.65,5.46-.74.61,3.32-1.19,5.11C36.87,87,34.29,88.47,32.6,86.56Z"/><path class="cls-2" d="M57.17,75.68c-5.51.08-9.49,12.15-14.7,13.95-2.39.83-9.61-1.33-10.4-3.72-1-3.11.9-10.06,3.31-11.74,2.64-1.83,8.73-.46,11.89-1.07,2.32-.45,6.38-3.74,10.27-3.49,2.57.16,8.38,3.64,8.08,3.52,0,0-12.27-8.08-17.08-10.09-3.1-1.29-10.93-.27-12.76-3.1s1.31-10.18,4-12.46,9.83-3.4,12.78-1.33c2.34,1.63,1.63,8.59,3.24,10.94,2.38,3.46,9.14,10,13.33,10.21,2.19.08,5.69-3.73,7.66-4.22,2.37-.58,7.45.88,7.52,1.07,0,0-7.27,3.92-7,14.11.19,6.44,5.5,10.74,9,12.72a11.45,11.45,0,0,0,10,1,8.72,8.72,0,0,0,1.7,8.2c2.88,3.37,6,3.11,10.64,2.84A24.56,24.56,0,0,0,118.78,100c4.82-2.67,9.54-6.56,16.15-8.63,3.56-1.11,6.7-.66,8.14,1,2,2.33,1.51,6.2,2.27,8.07a7.07,7.07,0,0,0,4.43,4.08,31.78,31.78,0,0,0-10.68,8.38c-2.4,3-7.11,7.44-9,8.41-2.13,1.12-5.11,2.36-5.11,2.36v-5.75c-2.14-6-8.47-5.9-10.85-6-11.75-.33-13.13,4.66-13.13,4.66S98.25,113,95.84,112c-2-.81-6.42-3.37-7.41-3.93-2.73-1.55-7.11-4.26-9-6.57-3.33-4-8.15-14.62-11.75-18.3C66.24,81.78,61.66,75.62,57.17,75.68Z"/><path class="cls-1" d="M19.34,130.65l24.33-7.83s-.67-6.64.67-8.23c1.72-2,8.07-3.84,10.4-2.52,1.1.62,2.6,5.35,2.6,5.35A30.85,30.85,0,0,1,62.63,122c4.21,5.36,9.81,16.72,11.91,24,.65,2.25,1.16,6.48-3,8.66-3.63,1.91-7.65.25-9.85-1s-8.27-8.69-8.27-8.69-2,4.94-6.31,5a7.32,7.32,0,0,1-6.73-4.23l-7.21,2.36s1.29,4.77-3.9,7.24c-3.27,1.56-6.94-.72-6.94-.72s-1,10.49-3.26,13.34c-1.44,1.8-5.57,4.2-8.06,3.68-3.54-.73-5-3.66-6.08-5.89C3.36,162.32,3.85,154,2.66,150.46a28,28,0,0,1-1.61-10.53,16.28,16.28,0,0,1,3.35-7.78s-.6-3.94,0-4.91c1.31-2,6.79-3.86,9.16-3.28S19.34,130.65,19.34,130.65ZM23.66,144A6.09,6.09,0,1,0,32,146.09,6.09,6.09,0,0,0,23.66,144Zm20.24-5.53a6.08,6.08,0,1,0,8.36,2A6.08,6.08,0,0,0,43.9,138.51ZM6.78,131.24A11.31,11.31,0,0,0,3,146.76c3.24,5.34,10.69,8.36,17.7,3.22a5.44,5.44,0,0,1,1.1-4.15,10.09,10.09,0,0,1,2.86-2.38c.87-3.83-1.48-7.83-2-8.68C19.41,129.44,12.12,128,6.78,131.24ZM62.63,122a11.31,11.31,0,0,0-15.84-2.2c-5,3.76-7.23,11.47-1.41,17.92a5.74,5.74,0,0,1,4.5.56,8.43,8.43,0,0,1,2.43,2.32c3.9.48,7.61-1.86,8.4-2.46C65.69,134.42,66.39,127,62.63,122Zm-11.4.64a2.43,2.43,0,1,0,3.34.82A2.44,2.44,0,0,0,51.23,122.68Zm6.74,2.8a2.43,2.43,0,1,0,3.34.81A2.42,2.42,0,0,0,58,125.48Zm-3.41,6.18a2.43,2.43,0,1,0,3.33.81A2.42,2.42,0,0,0,54.56,131.66Zm-6.5-2.72a2.43,2.43,0,1,0,3.33.82A2.43,2.43,0,0,0,48.06,128.94ZM9.61,138.27c.55.54,2.12,1.45,2.87,1.22s1.55-2,1.61-2.74A8.76,8.76,0,0,0,13,134a11,11,0,0,0-2.53.56,6.06,6.06,0,0,0-2,1.24A9.37,9.37,0,0,0,9.61,138.27Zm6.79,6.27c-.53-.57-2.06-1.56-2.81-1.36s-1.65,1.87-1.75,2.66a9,9,0,0,0,.93,2.8,11.53,11.53,0,0,0,2.56-.44,6.17,6.17,0,0,0,2-1.14A10,10,0,0,0,16.4,144.54ZM16.08,138c-.51.59-1.32,2.22-1,2.94s2.05,1.43,2.84,1.44a8.89,8.89,0,0,0,2.68-1.24,11.32,11.32,0,0,0-.73-2.49,5.79,5.79,0,0,0-1.36-1.9A9.53,9.53,0,0,0,16.08,138ZM9.7,144.83c.59-.51,1.63-2,1.46-2.76s-1.82-1.71-2.6-1.84a8.81,8.81,0,0,0-2.83.84,11.44,11.44,0,0,0,.35,2.56,6,6,0,0,0,1.07,2.09A9.58,9.58,0,0,0,9.7,144.83Zm15.39-15.91,3.24,10.17,11.4-3.83-3-10.2Z"/><line class="cls-1" x1="173.79" y1="218.5" x2="179.92" y2="218.61"/><path class="cls-1" d="M177.05,224.64l7.41-14.78-.8-49.37s-2.47-4.66-7.27-4.51a7.61,7.61,0,0,0-7.3,5.63l.16,48.68Z"/><line class="cls-1" x1="169.11" y1="166.48" x2="183.76" y2="166.2"/><line class="cls-1" x1="174.13" y1="203.33" x2="173.93" y2="172.39"/><line class="cls-1" x1="169.65" y1="210.07" x2="184.46" y2="209.86"/><line class="cls-1" x1="179.43" y1="203.5" x2="179.23" y2="172.56"/><path class="cls-1" d="M211.17,116.38s23.66,2.45,23.81,24.5c.09,13-9,16.59-11,21.94-.89,2.45-.91,8.27-.91,8.27H211.17Z"/><path class="cls-1" d="M211.17,150.93s7.3,1.31,7.3-3.94-7.3-4.12-7.3-4.12Z"/><path class="cls-1" d="M196.37,172h29.75s.56,6.31-.44,7.06-3,.76-3.81,2.09,1.24,5,.2,6.23h-22c-.88-1.29.87-4.64.13-6-.61-1.15-3.7-1.76-4.31-2.91C195.14,177,195.15,173.05,196.37,172Z"/><path class="cls-1" d="M204.71,187.4s.75,5,3.55,6.27a6.36,6.36,0,0,0,6.18-.37c2.35-1.66,2.67-5.93,2.67-5.93Z"/><polygon class="cls-1" points="206.46 120.18 206.46 134.51 198.31 131.23 194.4 140.62 206.46 140.74 206.5 149.88 201.49 149.87 201.3 156.94 206.46 156.89 206.46 171.81 200.09 171.81 200.09 162.51 195.5 162.32 194.29 159 197.62 157.09 194.94 148.74 189.42 148.65 187.29 139.45 189.72 136.02 189.7 128.89 195.13 123.46 198.83 126.13 199.25 121.4 206.46 120.18"/><line class="cls-1" x1="189.63" y1="135.9" x2="196.18" y2="135.89"/><line class="cls-1" x1="188.18" y1="143.31" x2="196.9" y2="145.25"/><circle class="cls-1" cx="188.11" cy="149.89" r="1.38"/><circle class="cls-1" cx="207.58" cy="151.43" r="1.38"/><circle class="cls-1" cx="207.58" cy="118.57" r="1.38"/><circle class="cls-1" cx="199.81" cy="128.12" r="1.38"/><line class="cls-1" x1="193.3" y1="156.51" x2="195.66" y2="162.74"/><circle class="cls-1" cx="201.4" cy="161.31" r="1.38"/><circle class="cls-1" cx="192.7" cy="155.24" r="1.38"/><circle class="cls-1" cx="198.28" cy="145.66" r="1.38"/><circle class="cls-1" cx="198.03" cy="120.18" r="1.38"/><path class="cls-1" d="M127.79,47.72c3.46-.37,5-4.53,5-4.53s3.39,0,4.92-1.86c1.36-1.66,1.53-5.1,1.53-5.1A7,7,0,0,0,142,32.48a6.05,6.05,0,0,0-.73-4.74,14,14,0,0,0,.3-5.35c-.43-2.19-2.92-3.28-2.92-3.28a5.6,5.6,0,0,0,.27-4.23c-.47-1.8-3.22-2.52-3.22-2.52a3.59,3.59,0,0,0,0-4.26,8.13,8.13,0,0,0-2.56-1.74S131.6,1.06,126.6,1c-2.69,0-4.85,3.13-4.85,3.13V44S123.65,48.16,127.79,47.72Z"/><path class="cls-1" d="M132.64,21.89a20,20,0,0,1,.46-6,7,7,0,0,1,2.63-3.52,6.9,6.9,0,0,0-2.63,3.52A25.35,25.35,0,0,0,132.64,21.89Z"/><path class="cls-1" d="M128.09,18.11a3,3,0,0,0,2.26,1.12,2.91,2.91,0,0,0,2.27-.63,4.17,4.17,0,0,1-2.15.63A5.34,5.34,0,0,1,128.09,18.11Z"/><path class="cls-1" d="M129.33,29.24c.32-.73-1,2-.11,3.2.55.8,1.9,1,4.62,1.4a8.21,8.21,0,0,1,2.61.51,9.75,9.75,0,0,1,2.66,2.08,7,7,0,0,0-2.66-2.08,6.14,6.14,0,0,0-2.52-.56c-2.56-.34-4.15-.57-4.71-1.35C128.39,31.29,129.26,29.41,129.33,29.24Z"/><path class="cls-1" d="M134.56,27.41a7.85,7.85,0,0,0,3.64.84,7.41,7.41,0,0,0,3-.4,9.75,9.75,0,0,1-3,.4A10.91,10.91,0,0,1,134.56,27.41Z"/><path class="cls-1" d="M133,6.37a8.09,8.09,0,0,0-3.6,1A7.46,7.46,0,0,0,127,9.13a10.17,10.17,0,0,1,2.41-1.76A11.46,11.46,0,0,1,133,6.37Z"/><path class="cls-1" d="M127.91,23.47a7.23,7.23,0,0,0-3.72.63,6.31,6.31,0,0,0-2.44,1.76,7.7,7.7,0,0,1,2.44-1.76A9.3,9.3,0,0,1,127.91,23.47Z"/><path class="cls-1" d="M121.9,11.74a7.22,7.22,0,0,0,3.4,1.57,6.79,6.79,0,0,0,3.43-.3,7.73,7.73,0,0,1-3.43.3A9.18,9.18,0,0,1,121.9,11.74Z"/><path class="cls-1" d="M128.05,42.17c-.05-.07-1.41-.16-2.73,1.42a5.29,5.29,0,0,0-1.26,2.66,6.13,6.13,0,0,1,1.26-2.66A3.28,3.28,0,0,1,128.05,42.17Z"/><path class="cls-1" d="M126.74,36.1c0-.08-.62-.42-2.54.28a6.7,6.7,0,0,0-2.77,2,7.63,7.63,0,0,1,2.77-2C126.33,35.64,126.75,36.18,126.74,36.1Z"/><path class="cls-1" d="M133.2,43A4.82,4.82,0,0,1,132,40.7a7.56,7.56,0,0,1-.13-2.32,17.67,17.67,0,0,0,.19,2.39A5.54,5.54,0,0,0,133.2,43Z"/><path class="cls-1" d="M115.39,47.72c-3.46-.37-5-4.53-5-4.53s-3.39,0-4.92-1.86c-1.36-1.66-1.53-5.1-1.53-5.1a7,7,0,0,1-2.78-3.75,6.05,6.05,0,0,1,.73-4.74,14.1,14.1,0,0,1-.31-5.35c.44-2.19,2.93-3.28,2.93-3.28a5.6,5.6,0,0,1-.27-4.23c.47-1.8,3.22-2.52,3.22-2.52a3.59,3.59,0,0,1,0-4.26A8.13,8.13,0,0,1,110,6.36s1.57-5.3,6.57-5.36c2.69,0,4.85,3.13,4.85,3.13V44S119.53,48.16,115.39,47.72Z"/><path class="cls-1" d="M110.54,21.89a20.38,20.38,0,0,0-.46-6,7,7,0,0,0-2.63-3.52,6.9,6.9,0,0,1,2.63,3.52A25.94,25.94,0,0,1,110.54,21.89Z"/><path class="cls-1" d="M115.09,18.11a3,3,0,0,1-2.26,1.12,2.91,2.91,0,0,1-2.27-.63,4.17,4.17,0,0,0,2.15.63A5.34,5.34,0,0,0,115.09,18.11Z"/><path class="cls-1" d="M108.62,27.41a7.85,7.85,0,0,1-3.64.84,7.53,7.53,0,0,1-3-.4,9.94,9.94,0,0,0,3,.4A10.91,10.91,0,0,0,108.62,27.41Z"/><path class="cls-1" d="M110.21,6.37a8.09,8.09,0,0,1,3.6,1,7.6,7.6,0,0,1,2.41,1.76,10.17,10.17,0,0,0-2.41-1.76A11.46,11.46,0,0,0,110.21,6.37Z"/><path class="cls-1" d="M115.63,13.43a7.17,7.17,0,0,1,3.6,1.11,6.28,6.28,0,0,1,2.2,2.06,7.86,7.86,0,0,0-2.2-2.06A9.22,9.22,0,0,0,115.63,13.43Z"/><path class="cls-1" d="M121.43,26.57a7.11,7.11,0,0,1-3.4,1.57,6.65,6.65,0,0,1-3.43-.3,7.73,7.73,0,0,0,3.43.3A9.1,9.1,0,0,0,121.43,26.57Z"/><path class="cls-1" d="M115.13,42.17c.05-.07,1.41-.16,2.73,1.42a5.29,5.29,0,0,1,1.26,2.66,6.13,6.13,0,0,0-1.26-2.66A3.28,3.28,0,0,0,115.13,42.17Z"/><path class="cls-1" d="M110,43a4.82,4.82,0,0,0,1.25-2.33,7.56,7.56,0,0,0,.13-2.32,17.67,17.67,0,0,1-.19,2.39A5.54,5.54,0,0,1,110,43Z"/><path class="cls-1" d="M104,36.43c-.07-.06-.06-.75,1.51-2.07A6.66,6.66,0,0,1,108.62,33a7.59,7.59,0,0,0-3.15,1.38C103.76,35.84,104,36.47,104,36.43Z"/><path class="cls-1" d="M112.89,31.32c.09.46.23,1.35,2.38,3.35,1.54,1.43,6.1.48,6.1.48s-4.31,1-6.1-.48A7.65,7.65,0,0,1,112.89,31.32Z"/><rect class="cls-1" x="30.26" y="159.38" width="21.31" height="21.31" rx="7.83" transform="translate(-2.62 0.65) rotate(-0.89)"/><rect class="cls-1" x="33.94" y="163.06" width="13.94" height="13.94" rx="6.97" transform="translate(-2.62 0.65) rotate(-0.89)"/><circle class="cls-1" cx="40.59" cy="169.33" r="3.62"/><path class="cls-1" d="M32.18,200.15c2.89.23,3.31-11.67,3.31-11.67L37.72,205s-4.6,1.39-4.52,2.7c.1,1.59,4.23,2.75,5.82,2.59,1.13-.11,3.78-.06,3.84-1.2.24-4.2-2.41-14.19-.27-14.33s1.37,12.34,4.35,14.82c1.13,1,5.43-.19,5.43-.19s4.18-1.53,4.08-2.76c-.14-1.84-6.7-3.13-6.7-3.13l-1.37-16.4s1.89,12.18,5,11.54c2.9-.6.84-9.65-.58-12.26a16.77,16.77,0,0,0-2-2.42l-17.44,1.18a6,6,0,0,0-1.5,1.73C30.57,189.65,29.14,199.91,32.18,200.15Z"/><path class="cls-1" d="M14.52,180.08,20.18,174a1.22,1.22,0,0,1,2,.24l4.22,7.7a1.82,1.82,0,0,1-.27,2.1L20.51,190a1.5,1.5,0,0,1-2.44-.34l-3.84-7.45A1.86,1.86,0,0,1,14.52,180.08Z"/><path class="cls-1" d="M19,181.81,20.62,180a.32.32,0,0,1,.54.06l1.14,2.3a.58.58,0,0,1-.09.63l-1.57,1.8a.39.39,0,0,1-.67-.09l-1-2.23A.59.59,0,0,1,19,181.81Z"/><path class="cls-1" d="M96.59,234.62s4.85-8.26,14.38-8.26c7.82,0,14.71,8.26,14.71,8.26a16.9,16.9,0,0,1-14.54,8.16C101.35,242.79,96.59,234.62,96.59,234.62Z"/><circle class="cls-1" cx="110.75" cy="234.57" r="5.87"/><circle class="cls-1" cx="110.75" cy="234.25" r="1.45"/><path class="cls-1" d="M120.12,229.67c-.85-.64-4.23-2.3-4.23-2.3-.36-3.39,10.68-8.45,10.68-8.45s.68,12.68-2.65,13.86C123.92,232.78,121.17,230.45,120.12,229.67Z"/><path class="cls-1" d="M101.46,229.5a31.38,31.38,0,0,0-3.78,3.28c-3.19-1.2-3.06-14.65-3.06-14.65s11.18,5.38,10.74,8.88C105.36,227,102.63,228.91,101.46,229.5Z"/><path class="cls-1" d="M111,226.36a50.27,50.27,0,0,0-5.14.65c-2.19-2.6,5.09-13.32,5.09-13.32s6.69,10.46,4.6,13.3C115.52,227,112.27,226.42,111,226.36Z"/><path class="cls-1" d="M99,220.54c-.87-2,2.52-8.55,2.52-8.55s6.45,3.72,6.8,5.95c0,0-2.5,4.17-2.95,7.51A18.69,18.69,0,0,0,99,220.54Z"/><path class="cls-1" d="M113.47,218c.26-2.16,6.5-6.09,6.5-6.09s3.68,6.48,2.85,8.58c0,0-4.27,2.32-6.35,5A18.76,18.76,0,0,0,113.47,218Z"/><line class="cls-3" x1="110.75" y1="219.98" x2="110.75" y2="225.45"/><line class="cls-3" x1="110.91" y1="228.93" x2="110.94" y2="232.08"/><line class="cls-3" x1="122.85" y1="225.5" x2="120.44" y2="229.67"/><line class="cls-3" x1="98.83" y1="225.45" x2="101.31" y2="229.12"/><path class="cls-1" d="M96.59,234.62l-6.68-8s5.14-.8,5.19-.41c.32,2.52,1.49,6.6,2.19,6.74Z"/><path class="cls-1" d="M126.11,234.36l6.67-8s-5.13-.8-5.18-.42c-.32,2.53-1.49,6.61-2.19,6.74Z"/><path class="cls-1" d="M106.34,215c-.62-2.28,4.71-8.53,4.71-8.53s4.69,5.86,4.91,8.25c0,.11-2.69,3-2.69,3l-2.35-4.1-2.3,3.73Z"/><line class="cls-3" x1="109.25" y1="235.88" x2="107.02" y2="238.11"/><line class="cls-3" x1="105.67" y1="234.36" x2="108.83" y2="234.36"/><line class="cls-3" x1="107.37" y1="230.82" x2="109.61" y2="233.05"/><line class="cls-3" x1="110.91" y1="236.53" x2="110.94" y2="239.69"/><line class="cls-3" x1="112.55" y1="235.78" x2="114.79" y2="238.01"/><line class="cls-3" x1="116.14" y1="234.26" x2="112.98" y2="234.26"/><line class="cls-3" x1="114.43" y1="230.72" x2="112.2" y2="232.95"/><path class="cls-1" d="M195.26,215V204.56a.59.59,0,0,1,.59-.59h0a.55.55,0,0,0-.55.55S195.24,216.28,195.26,215Z"/><path class="cls-1" d="M191.9,217.13c0-1.54,0-15.68,0-15.68a.89.89,0,0,1,.89-.89h-.06a.83.83,0,0,0-.83.83S191.88,219.07,191.9,217.13Z"/><path class="cls-1" d="M199.11,211.93v-4.58a.26.26,0,0,1,.26-.26c1.23,0,6.18,0,4.94,0h-5a.24.24,0,0,0-.24.24S199.1,212.49,199.11,211.93Z"/><path class="cls-1" d="M142.5,236.08c5.62,0-1.58-35.93,1.65-40.53,2-2.91,11.8-3.64,14.39-1.21,1.78,1.67-.44,8.43,3.65,7.88,2.81-.39,2.43-10.38,0-12.23-4.25-3.25-19.67-2.94-21.38.69C139.79,192.86,138.06,236.09,142.5,236.08Z"/><path class="cls-1" d="M161,202.37c2.06.21-5.52-1.5-8.33.84-2.38,2,1.44,32,1.35,31.29-.12-1-3.48-29.6-1.13-31.36C155.82,201,161,202.37,161,202.37Z"/><circle class="cls-1" cx="150.93" cy="233.66" r="2.8"/><circle class="cls-1" cx="147" cy="200.56" r="0.52"/><circle class="cls-1" cx="155.14" cy="198.04" r="0.52"/><circle class="cls-1" cx="150.93" cy="198.56" r="0.52"/><circle class="cls-1" cx="147.19" cy="205.55" r="0.52"/><circle class="cls-1" cx="147.7" cy="210.39" r="0.52"/><circle class="cls-1" cx="148.12" cy="215.23" r="0.52"/><circle class="cls-1" cx="149.15" cy="225.88" r="0.52"/><circle class="cls-1" cx="148.64" cy="220.39" r="0.52"/><rect class="cls-1" x="156.89" y="206.04" width="4.73" height="26.96" rx="1.7" transform="translate(-13.15 10.17) rotate(-3.51)"/><polyline class="cls-1" points="8.9 104.13 16.15 102.42 15.23 98.37 4.66 100.81 6.66 109.33 21.58 105.63 19.4 96.37"/><polyline class="cls-1" points="32.26 98.64 25.01 100.34 24.02 96.3 34.58 93.78 36.58 102.3 21.58 105.63 19.4 96.37"/><polyline class="cls-1" points="9.97 109.04 11.03 113.55 14.27 112.79 15.21 116.78 19.2 115.84 20.2 120.13 29.68 117.9 28.72 113.79 32.92 112.68 31.96 108.64 35.22 107.93 34.14 103.36"/><path class="cls-1" d="M54.26,225.63a12.09,12.09,0,1,1,21.6,10.89"/><path class="cls-1" d="M57.38,227.28A8.63,8.63,0,0,1,72.79,235"/><path class="cls-1" d="M60.3,228.68a5.32,5.32,0,0,1,9.51,4.79"/><polyline class="cls-1" points="52.96 223.63 49.15 220.64 51.81 216.86 55.73 219.95"/><polyline class="cls-1" points="78.22 224.75 82.98 223.89 84.04 228.38 79.12 229.27"/><polyline class="cls-1" points="73.36 219.13 76.76 215.69 80.2 218.76 76.69 222.31"/><polyline class="cls-1" points="66.23 216.84 67.41 212.15 71.94 213.04 70.72 217.88"/><polyline class="cls-1" points="58.3 218.27 57.11 213.58 61.52 212.21 62.75 217.05"/><polyline class="cls-1" points="79.17 232.15 83.87 233.29 83.02 237.83 78.17 236.65"/><path class="cls-1" d="M60.54,196.6l1.58-8.7A1.28,1.28,0,0,1,64,187l8.23,4.46a1.93,1.93,0,0,1,1,2L71.61,202a1.6,1.6,0,0,1-2.39,1.1l-7.74-4.46A2,2,0,0,1,60.54,196.6Z"/><path class="cls-1" d="M65.58,195.55l.36-2.57a.34.34,0,0,1,.52-.26l2.34,1.41a.6.6,0,0,1,.29.61l-.37,2.52a.42.42,0,0,1-.66.31l-2.2-1.4A.63.63,0,0,1,65.58,195.55Z"/><polygon class="cls-1" points="177.21 17.9 177.01 27.77 161.75 42.13 146.71 42.14 146.69 17.93 177.21 17.9"/><polyline class="cls-1" points="176.77 23.24 151.43 23.26 151.44 37.59 159.69 37.59 170.23 27.55 156.63 27.47 156.66 33.39"/><line class="cls-1" x1="156.03" y1="32.82" x2="160.17" y2="32.77"/><path class="cls-1" d="M157.64,15.08l-8,.09a.44.44,0,0,1-.45-.46c0-2.27-.1-8.79-.1-9.08,0-.53.07,6.83.1,9.11a.42.42,0,0,0,.42.43Z"/><path class="cls-1" d="M159.3,17.76c-1.17,0-12,.14-12,.14a.69.69,0,0,1-.68-.7S146.5,4,146.49,3.56c0-.81.15,13.69.15,13.69a.64.64,0,0,0,.64.65Z"/><path class="cls-1" d="M155.26,12l-3.09,0c-.11,0-.16-.19-.16-.19,0-1-.11-4.94-.11-3.95,0,.72,0,3,0,4,0,.13.19.19.29.18S155.69,12,155.26,12Z"/><ellipse class="cls-1" cx="159.19" cy="11.72" rx="3.29" ry="3.46"/><path class="cls-1" d="M176.51,14.87l-9.95.16a1.38,1.38,0,0,1-1.34-1.41h0a1.38,1.38,0,0,1,1.34-1.42l5-.11"/><polygon class="cls-1" points="64.47 16.97 64.67 26.84 79.92 41.19 94.96 41.2 94.98 16.99 64.47 16.97"/><polyline class="cls-1" points="64.91 22.3 90.25 22.32 90.24 36.66 81.98 36.65 71.44 26.62 85.05 26.53 85.02 32.45"/><line class="cls-1" x1="85.65" y1="31.88" x2="81.5" y2="31.83"/><path class="cls-1" d="M84,14.14l8,.1a.47.47,0,0,0,.46-.47c0-2.27.09-8.78.1-9.07,0-.54-.07,6.83-.1,9.1a.43.43,0,0,1-.43.44S83.06,14.14,84,14.14Z"/><path class="cls-1" d="M82.37,16.82c1.18,0,12,.15,12,.15a.7.7,0,0,0,.69-.71s.14-13.21.15-13.64c0-.81-.15,13.69-.15,13.69a.66.66,0,0,1-.64.66S80.9,16.82,82.37,16.82Z"/><path class="cls-1" d="M86.41,11.07l3.09,0c.11,0,.16-.19.16-.19,0-1,.11-4.95.12-4,0,.72,0,3,0,4,0,.13-.19.18-.29.18Z"/><ellipse class="cls-1" cx="82.49" cy="10.79" rx="3.29" ry="3.46"/><path class="cls-1" d="M65.17,13.93l9.94.16a1.38,1.38,0,0,0,1.34-1.41h0a1.38,1.38,0,0,0-1.34-1.41l-5-.11"/><path class="cls-1" d="M61,30s-2.78,0-3.37-.62c-1.49-1.59.16-7.9-3.13-7.9s-2.14,6.17-3.63,7.75c-1.31,1.4-5.08-.18-6.49,1-1.63,1.39-.39,8.18-.39,8.18s15.48,3.17,15.29-2.56c-.12-3.48-8-1.8-8-1.8"/><path class="cls-1" d="M180.07,30.92s2.79,0,3.37-.61c1.5-1.59-.16-7.91,3.13-7.91s2.15,6.18,3.63,7.76c1.32,1.39,5.08-.18,6.5,1,1.62,1.39.38,8.17.38,8.17s-15.47,3.17-15.28-2.56c.11-3.47,7.94-1.79,7.94-1.79"/><path class="cls-1" d="M35.4,34.14a64.85,64.85,0,0,0-8.06,9c-2.14,3-4,7.29-5.4,9.59-.92,1.5,3-6,5.4-9.59C29.41,40,36.86,32.7,35.4,34.14Z"/><path class="cls-1" d="M38.11,38a55.56,55.56,0,0,0-7,7.8c-1.85,2.6-3.45,6.35-4.68,8.34a80.69,80.69,0,0,1,4.68-8.34C32.92,43.12,39.38,36.78,38.11,38Z"/><path class="cls-1" d="M41.55,41.4a50.38,50.38,0,0,0-6.24,7.05c-1.66,2.35-3.08,5.74-4.18,7.54a69.62,69.62,0,0,1,4.18-7.54C36.92,46,42.68,40.27,41.55,41.4Z"/><path class="cls-1" d="M11.86,63.73s5.88-6.62,14.53-4.91C33.5,60.23,38.27,69,38.27,69a15.66,15.66,0,0,1-14.67,4.8C14.71,72,11.86,63.73,11.86,63.73Z"/><circle class="cls-1" cx="24.72" cy="66.28" r="5.43"/><circle class="cls-1" cx="24.74" cy="65.98" r="1.34"/><path class="cls-1" d="M9.88,70.06c.82.62,6,5.53,9.12,7,3.32,1.56,15.19,1.81,12,1.67-2.34-.11-8.92-.21-12.32-1.81C15.53,75.41,7.11,67.93,9.88,70.06Z"/><line class="cls-1" x1="18.74" y1="76.77" x2="16.25" y2="83.72"/><circle class="cls-1" cx="15.34" cy="86.26" r="3.22"/><line class="cls-1" x1="11.19" y1="72.05" x2="8.99" y2="76.37"/><circle class="cls-1" cx="7.78" cy="78.74" r="2.76"/><line class="cls-1" x1="27.32" y1="78.37" x2="26.52" y2="83.16"/><circle class="cls-1" cx="26.08" cy="85.78" r="2.76"/><path class="cls-1" d="M209.56,58.2a63,63,0,0,0,3.24-8,11.22,11.22,0,0,0-1.32-8.26l-8.11,4,7.44,14.93-8,3.91,6.29,12.07,13.93-6.77-3.48-6.72-10.2,5,1.46,2.91,5.08-2.47"/><polyline class="cls-1" points="216.94 81.65 214.54 82.93 216.19 86.18 221.92 83.15 214.94 69"/><line class="cls-1" x1="211.11" y1="61.46" x2="213.77" y2="66.48"/></g></g></svg>