<svg xmlns="http://www.w3.org/2000/svg" viewBox="0 0 670.18 245.02"><defs><style>.cls-1,.cls-5{fill:#1d1d1b;}.cls-2,.cls-4{fill:none;stroke:#fff;}.cls-2,.cls-3,.cls-4{stroke-miterlimit:10;}.cls-2{stroke-width:2px;}.cls-3{fill:#fff;stroke:#1d1d1b;}.cls-5{font-size:90px;font-family:Jokerman-Regular, Jokerman;}</style></defs><g id="Capa_2" data-name="Capa 2"><g id="Capa_1-2" data-name="Capa 1"><circle class="cls-1" cx="122.12" cy="122.12" r="122.12"/><path class="cls-2" d="M244.06,114.15A14.56,14.56,0,0,1,238.3,85.6"/><path class="cls-2" d="M243.3,110a10.39,10.39,0,1,1-4.11-20.36"/><path class="cls-2" d="M242.45,106.16a6.41,6.41,0,0,1-2.53-12.57"/><polygon class="cls-2" points="228.85 87.45 235.32 83.29 229.09 81.3 228.85 87.45"/><polygon class="cls-2" points="223.83 96.84 226.93 89.8 220.63 91.59 223.83 96.84"/><polygon class="cls-2" points="231.92 115.51 226.44 110.12 225.88 116.64 231.92 115.51"/><polygon class="cls-2" points="242.32 117.31 234.65 116.82 238.49 122.12 242.32 117.31"/><polygon class="cls-2" points="225.05 107.73 223.56 100.19 219.42 105.25 225.05 107.73"/><path class="cls-3" d="M161.72,82.63s13.46-2.35,17.81-2.71c4.68-.39,12.88-.33,16.77-2.33,4.11-2.12,7.6-5.6,7.6-13.92,0-10.56-2.29-12-6-16-4-4.43-12.55-4.74-17-4.38-6,.49-10.94,3.16-12.4,9.73-.65,3-.42,7.7,1,9.92a8.48,8.48,0,0,0,4.17,3.28,14.68,14.68,0,0,0,5.63.25A10,10,0,0,0,186,62.86c.94-1.41.67-4.2-1.95-4.37-2.12-.14-5.62,2.84-7.78,1.66-3-1.64-1.35-4.9-.32-6.28,1.62-2.19,5-2.92,7.62-2.69,2.15.19,5.43,1.39,6.64,3.58a14.86,14.86,0,0,1,1.32,8.43c-.49,3.24-3.38,6.78-6.87,8.57-7.42,3.79-22.73,2-22.73,2Z"/><path class="cls-3" d="M160.8,90.18l.92-6.78S174,80.47,178.31,80c4.68-.46,15.18-1,19.63.81,4.24,1.73,11.2,5.69,13.89,11.17,2,4.14,3,12.35-.28,17.54-1.18,1.85-3.41,8-16.45,6.66-9.62-1-9.68-5.93-12.6-9.6s-6.41-11.2-10.33-13.69C169.86,91.46,160.8,90.18,160.8,90.18Z"/><path class="cls-3" d="M173.69,93.37a113.33,113.33,0,0,1,11.2-3,60,60,0,0,1,10.38.08A8.22,8.22,0,0,1,199.64,93c1.87,1.91,5.27,7.31,2.59,11.93a6.34,6.34,0,0,1-3,2.43,9.54,9.54,0,0,1-5.8,0c-1-.44-2.69-1.49-4.12-2.08-1.22-.51-3.31-1.51-5.13.31-.86.85-.48,2.82-1,2,0,0-4.78-7.34-6-9C176.41,97.44,173.69,93.37,173.69,93.37Z"/><path class="cls-3" d="M179.28,118.71s3-2.42,3.28-5.08a19.76,19.76,0,0,0-.29-5.74,20.46,20.46,0,0,0-2.65-5.88c-1.52-2.52-4.92-7.59-7.45-9.08a18.07,18.07,0,0,0-6.63-1.59c-2.2-.06-5.64-.61-7.23.26a2.92,2.92,0,0,0-1.42,2.67,3.82,3.82,0,0,0,2.28,3.13c2.26.87,6.06.69,7.62,1.16s2.15,1.55,4.47,3.7a17.48,17.48,0,0,1,4.1,6.78,61.09,61.09,0,0,1,.71,6.77l.14,1.88Z"/><path class="cls-3" d="M129,124.37a40,40,0,0,0,5.51-2.68c4.76-3.6,12.44-14.78,18.4-15.23,5.65-.43,7.3,1.16,8.83,2.92a9.34,9.34,0,0,1,1.94,7.57c-.39,3.14-3.52,8.85-6,10.82-1.3,1-4.3,3.17-6.41,1.15-1.71-1.65-.54-4.71.41-6,2.86-3.81,2.81-2.82,3.81-5.07.47-1.06.47-3.49-.93-4.61s-3.92-.67-5.07.16c-2.82,2-4.83,9.27-6.89,12.07a20,20,0,0,1-6.32,5.19c-1.71.68-7.29,1.13-7.29,1.13Z"/><path class="cls-3" d="M166.79,98.56a18.33,18.33,0,0,1,8.75,11.56c.29,2,.67,7.57.67,7.57a11.82,11.82,0,0,1,2.65.8,3.35,3.35,0,0,1,1.74,3.45,3.26,3.26,0,0,1-1.86,2.63c-1.28.56-4.35-.63-5.6,0-2.85,1.44-4.38,8.6-6.56,10.94-1.86,2-7.31,3.7-10,3.32-1.14-.16-2.5-1.21-3.91-2a14.56,14.56,0,0,0-2.3-.93c-1.55-.61-5.6-.51-7.24-.15a16.89,16.89,0,0,0-2.57,1c-.94.39-2,1.46-2.76,1.42-1.61-.08-5.55-3.54-5.55-3.54s.23-2.84,1-2.84c3.76,0,6.85-3.09,8.24-5.08,1.54-2.2,4-8.2,5.63-10.36,1-1.36,3-3.44,4.48-3.72a2.9,2.9,0,0,1,2.92.61c1.18,1,1.24,3.48.93,4.61-.6,2.15-4.49,5.24-4.9,7.43a5,5,0,0,0,1.09,3.94c2,1.82,4.86-.51,6-1.48,2.35-2,5.74-7.74,6-10.82.18-2.15-.8-6.34-2.26-7.93-.89-1-4.51-2.63-4.51-2.63s.13-5.17,1.3-6.25C160,98.51,164.6,97.56,166.79,98.56Z"/><path class="cls-3" d="M160.8,139.71s6.43,8.7,9.61,10.14a8,8,0,0,0,7.78-1,5.36,5.36,0,0,0,1.89-5.59c-.43-1.77-3.44-3.19-4.38-4.74s-.06-5,.12-6.67,1.4-7.12,1.4-7.12-3.15-.55-4.08-.13c-1.14.52-2.39,2.93-3,4-1,1.69-2.28,5.44-3.54,6.92S160.8,139.71,160.8,139.71Z"/><path class="cls-3" d="M134.69,152.47a33.08,33.08,0,0,1,11.63-2.31,27.49,27.49,0,0,1,11,2.74s.47-9.46-.87-12.15-4.3-5.2-10-5.41a12.89,12.89,0,0,0-11,6.19C134.23,144.07,134.69,152.47,134.69,152.47Z"/><path class="cls-3" d="M148.83,164.87c-2.46-.92-6.92,1.76-9.36,6.5-1.82,3.55-4,11.73-5.63,15.15A52.24,52.24,0,0,1,126.23,197c-1.55,1.59-6.14,2.66-6.65,5.84-.4,2.51,1.56,6.62,6.16,8.1,3.46,1.11,10,1.57,11.91-.73s-.55-8.91-.49-11.89a12.2,12.2,0,0,1,1.75-6.44c2-3.14,8.55-12.83,10.17-16.35C150.78,171.79,152.05,166.08,148.83,164.87Z"/><path class="cls-3" d="M160.8,155.26c-2.75-2.85-9.71-5.07-14.69-5.1-4,0-10.1,1.09-13.75,4.13-3.24,2.7-4.86,8.32-4.86,13,0,5.69,6.77,11.68,8.56,13.24.76-1.19,1.71-6.63,4.2-10.51s5.76-6.35,8.57-5.15c2.25,1,2.8,4,1.32,7.77A69.53,69.53,0,0,1,144.67,183c1.29-.12,6.62-.69,7.63-.84,2.76-.41,7.6-2.84,9.48-5s3-4.87,3.34-9.91A18,18,0,0,0,160.8,155.26Z"/><path class="cls-3" d="M143.45,104.91a4.62,4.62,0,1,1-4.62-4.62A4.62,4.62,0,0,1,143.45,104.91Z"/><path class="cls-3" d="M97.94,145.48c-5.17-2.1-7.32-8.83-4.8-15s8.75-9.51,13.92-7.41,7.32,8.83,4.8,15S103.11,147.59,97.94,145.48Z"/><circle class="cls-3" cx="115.34" cy="124.41" r="4.19"/><circle class="cls-3" cx="115.34" cy="141.44" r="4.32"/><path class="cls-3" d="M154.67,78.83c.26-2.9,1.15-5,0-6.41s-1.3-1.74-1.37-2.91.22-2.17,1.21-2.6a5.44,5.44,0,0,1,5.51.81c.7.64,2.17,2.19,1.24,9.65-.34,2.74.47,7.7-2.7,11a5,5,0,0,1-5.18.89c-1.86-.78-3.44-1-2.91-2.84.48-1.67,1.86-1.21,3.07-3.81A10.59,10.59,0,0,0,154.67,78.83Z"/><path class="cls-3" d="M148,100.7c.48,2,2.56,5.26,6.53,4.21,3.66-1,3.17-5.9,2.71-7.69-.57-2.23-3.46-6.14-5.27-7.58-2.16-1.73-7.59-3.57-10.37-3.6-3.68-.05-10.9,2.11-14.26,3.6-4.37,1.94-12.58,8-17.34,7.66-3.32-.24-4.46-3-3.32-5.59C107.9,89,113,86,116,85.71s9.35,2.08,12.47,2.11c3.38,0,9.12-2.22,12.49-2.33,6.07-.18,5.05,1,8,.47,4.2-.78,5.6-2.73,5.9-8.95.19-3.78-2-6-8.53-6.24-7.42-.22-10.85,3.6-11-1.69-.11-4.7,2.6-2.86,4.62-2.57,2.86.4,14.25.61,18.11-.41a6.07,6.07,0,0,0,4.26-3.89c.89-2,1-5.16-1.22-7.05-1-.88-3.12-2.24-5.37-1.27A3.2,3.2,0,0,0,154,57.64c.46,2.49,2.9,2.31,2.64,3.4-.36,1.53-8.42,1.17-8.42,1.17l-7.38-.85s-.63-3.91-3.36-4.45c-4.61-.93-5.15,4.74-5.15,4.74s-5.61.67-7.25-.17c-2-1-.34-3.41-4.86-5.83-3.32-1.78-9.81.89-11.26,3.65-1,1.81-2.19,5.34-.17,8.18A5.37,5.37,0,0,0,114,69.75c.34-.07,3.32-.24,3-3.24A3.19,3.19,0,0,0,113.91,64c-.75,0-2.77.89-2.66-1.49s3-2.45,4.09-2.24c1.35.27,3.65,2.62,4.19,3.89a8.42,8.42,0,0,1,0,6.13c-1,2.27-3,3.59-6.76,4.08a26.55,26.55,0,0,1-6.07-.65c-1.89-.36-6.39-2.44-8.42,1.62-1.86,3.73,3.23,1.7,4.93,3.4a5.66,5.66,0,0,1,1,5.92,33.58,33.58,0,0,1-3.4,5.92,10,10,0,0,0-1.21,8c1.07,4.31,5.76,5.54,9.8,5.73a24.93,24.93,0,0,0,15.07-4.68c3.86-3,11.61-7.25,16.05-7.62,1.94-.16,5,.51,5.83,1.79C148.06,96.65,147.31,97.63,148,100.7Z"/><path class="cls-3" d="M119.09,81.12c0,2.56-2.06,3-4.61,3s-4.59-.49-4.59-3,1.71-3,4.26-3S119.08,78.57,119.09,81.12Z"/><path class="cls-3" d="M127,103.58c1.16,2.27-.48,3.66-2.75,4.81s-4.33,1.62-5.47-.66.23-3.8,2.5-5S125.79,101.31,127,103.58Z"/><path class="cls-3" d="M99.17,106.12c-2.23,1.24-3.67-.35-4.89-2.59s-1.75-4.27.49-5.49,3.37.14,4.71,2.28C100.57,102.06,101.4,104.89,99.17,106.12Z"/><path class="cls-3" d="M56.27,90.08c1.58,1.49,4.37,1.28,5.44,0,1.57-1.82.3-2.86,2.26-2.44,4.88,1,8.43,11.78,14.06,18.88,4.13,5.23,14.83,13.34,18.87,14.37,1.55.4,5,1.47,6.23-.7s-.36-4.13-1.43-5.07c-2.35-2.08-15.5-8.82-19.36-13.08-4.08-4.52-8.6-16.58-14-19.44-2-1.08-6.72-1.21-9-.33A6.47,6.47,0,0,0,55.85,85,3.87,3.87,0,0,0,56.27,90.08Z"/><path class="cls-3" d="M102.5,122.2s1.77-4.82,2.51-5.71c1.83-2.19,4.2-3.35,11.49-3.35,8.39,0,10.73,2.82,11.5,6l-.19,23a21.8,21.8,0,0,0-3.57.29c-1.11.26-5.35,1.95-5.35,1.95s2.11-3.58-.61-6.06-5.68-.18-5.68-.18l.92-5.94-.28-3.57a12.73,12.73,0,0,0,4.1-.51c1.71-.66,2.44-2.49,2.07-4.51a4.38,4.38,0,0,0-2.48-3.36,4.52,4.52,0,0,0-4.56.76c-1.23,1-1.7,4-1.7,4a34.94,34.94,0,0,0-4.13-2.07A15.16,15.16,0,0,0,102.5,122.2Z"/><path class="cls-3" d="M88.73,91.87c2.82,1.83,10.31,3.48,11-.64s-5.18-2.94-8.7-5.52c-3.33-2.43-3.88-6.28-4-8.67a8.33,8.33,0,0,1,1.78-5.67c3.86-4.82,13.21-8.47,13.63-13.94.55-7.12-7.13-10-11.85-9.56-9,.93-11.8,9.62-15.92,7.78C73.46,55.08,73,51.33,73.31,50c1-4,1.78-4.58,1.62-6.81-.24-3.48-3.5-6.08-4.86-4.7-1,1,1.92,1,2.27,4.7.29,3.07-3.41,8.27-2.35,13a5.48,5.48,0,0,0,3.43,4.15c3.49,1.28,5.83-.9,7.83-2,1.62-.87,6.93-3.84,8.67-4.42,4-1.34,6,.69,6.08,3.36.2,4.38-10.7,8.43-12.8,11.51a20.65,20.65,0,0,0-2.92,9.22,15.35,15.35,0,0,0,2.59,8.69C83.89,88.4,87.11,90.83,88.73,91.87Z"/><path class="cls-3" d="M104.61,82.69A4.62,4.62,0,1,1,100,78.08,4.62,4.62,0,0,1,104.61,82.69Z"/><path class="cls-3" d="M98.94,164.13c-.32,2.38,2.58,5.65,8.08,4.25a16.84,16.84,0,0,0,10.22-7.92c2.19-3.43,2.05-8.26,4.29-10.64,1.07-1.14,4.08-2,5.35-1.13,1.62,1.13,2.44,4.31,1.12,4.81-1.77.67-2.26-2.3-3.22-3.45a2.39,2.39,0,0,0-4,1.58c-.27,1.61,1,4.91,2.85,6,3.38,1.92,5.34.23,7.33-1.83s3-6.57,1.33-9.24c-1.13-1.84-4.1-4.51-7.26-4.09-5.11.69-7.27,5.39-8.3,8-2.4,6.14-3.39,6.75-5.62,9.55C105.76,166.68,99.67,158.72,98.94,164.13Z"/><path class="cls-3" d="M109.33,153.85c-2.51.35-1.31,3.57-4.54,2.73-3.42-.89-1.49-3.74.41-4,2.31-.34,3.29.71,6,1.28a3.09,3.09,0,0,0,3.69-1.45c1-1.86-.23-3.4-2.55-4.78s-4.87-1.52-8.23-.56c-2.83.81-7,4.29-7,8.3,0,1.38.63,3.73,3.42,5.93,2.64,2.07,6.83,1.33,8.73.37C112.76,159.87,113.83,153.21,109.33,153.85Z"/><path class="cls-3" d="M97.36,153.79s-9.08.94-11.55-.53a5.39,5.39,0,0,1-2.31-5c.43-3.19,2.83-4.09,4.74-4.38a52.38,52.38,0,0,1,6.05-.36,30.26,30.26,0,0,0,3,2.3c1,.51,5.62,1,5.62,1s-3.84,3.09-4.5,4.2A18.74,18.74,0,0,0,97.36,153.79Z"/><path class="cls-3" d="M80.28,200.11c.06-4.86,4.47-8.14,7.6-9.84,4.8-2.62,16.54-1.11,17.32-5.05.42-2.15-3-3.34-7-3.22-4.65.14-14.13,4.07-15.29.79-.7-2,3.37-3.3,4.56-4,1.79-1.12,4.74-2.54,4.93-6.91a5.86,5.86,0,0,0-4.47-6.07c-3.62-1-6.75,4-5,2.77,1.59-1.14,1.79-2.84,3.79-2.9,4.49-.12,5.83,4.17,5.68,6.41-.21,3.16-3.36,5.24-4.75,6.38a4.34,4.34,0,0,1-4.13,1.2c-1.3-.23-2.27-2-4.12-1.93-3.07.12-4.72,6.62-10.24,4.48-4-1.55-4-8.16-3.65-11.3.55-4.32,4.65-7.53,8-9.06,5.17-2.37,12,.22,14.81-2.84,1.54-1.71-1.2-5,.2-4.89a47.54,47.54,0,0,0,8.09-.22c1.2-.24-.1,2.08.75,4.29s3.8,3.54,3.8,3.54-1.63.09-2.12,2.43a4.46,4.46,0,0,0,1.72,4.28c1.74,1.5,5.63,1.7,5.63,1.7,0,2-5.67,5-5.67,5a21.47,21.47,0,0,1,4.23-1.21c4.91-.42,6.3.87,7.92,1.74,2.64,1.41,4.89,4.6,4.7,9.44-.16,4.28-2.82,8.45-5.34,11.49a28,28,0,0,1-13.8,9.66c-2.71.84-10.92,1.49-13.61.61C82.41,206.1,80.23,204.09,80.28,200.11Z"/><path class="cls-3" d="M72.24,116.94c.19,0,1.64.19,1.68,0a15,15,0,0,1,1.36-4.55c2.56-5.87,5.55-2.79,3.36-5.14a39.68,39.68,0,0,1-3.1-4.47,11.26,11.26,0,0,0-3.77,2.92c-.9,1.16-3.14,5.07-3.4,6.51C67.73,115.75,71.13,116.71,72.24,116.94Z"/><path class="cls-3" d="M89,128.91c1.9,0,.11-3.25.85-5.57,1.76-5.56,2.54-4.36,0-6.32-1.09-.83-4.65-3.23-4.65-3.23a30.05,30.05,0,0,0-1.46,4.32,25.6,25.6,0,0,0-.76,7.07C83.61,129.4,87.68,128.91,89,128.91Z"/><path class="cls-3" d="M109.94,172.77c-1.37,0-2.92.17-2.92-1.61,0-2,3.18-1.14,3.73-1.74s.36-2,1.78-2.31c2.85-.57,2.45,2.66,2.51,4.08,0,1-.05,3.61-2.47,3.26-1.36-.21-.36-1.22-1.92-1.58a2.57,2.57,0,0,0-.71-.1"/><path class="cls-3" d="M115.59,198.9c3.26,3.58,11.23-2.53,13.55-5.33s6.57-9.4,6-12.8c-.49-3.07-6-4.89-7.32-11.1-1.39-6.75,1.15-9.56,1.81-12.28a6.38,6.38,0,0,1-5.07.89c-1.78-.38-4.14-4.95-4.14-4.95s-2.38,6.29-2.81,7.28A23.38,23.38,0,0,0,116,166a44.24,44.24,0,0,0,.19,10.66c.31,2.8,2.07,5.68,1,10.28C116.15,191.88,112.43,195.42,115.59,198.9Z"/><path class="cls-3" d="M63.2,86.77c-.89.42-.12,2-1.69,3.46-2.35,2.23-4.92,0-6,.55a6.63,6.63,0,0,0-3,4.56A6.07,6.07,0,0,0,59,102c3.83-.43,4.72-2,4.88-3.44s.47-3.21.51-4.64c.14-5-.72-5.91-.55-6.61a37,37,0,0,1,.55,6.61,25.94,25.94,0,0,0,0,5.43c1.06,5,5.82,4.35,7.76,3.67a16.25,16.25,0,0,0,2.52-1.35,54.79,54.79,0,0,1-3.25-5.59c-.75-2-2.33-3.8-4.63-6.67C66.13,88.54,64.2,86.29,63.2,86.77Z"/><path class="cls-3" d="M48.3,56.52c-2,1.51-3.68.11-5.18-2s-2.29-4-.23-5.51,3.36-.29,5,1.66C49.17,52.3,50.36,55,48.3,56.52Z"/><path class="cls-3" d="M35.59,87.8c-1.7-1.91-.46-3.66,1.45-5.34s3.78-2.65,5.47-.74.6,3.32-1.2,5.11C39.86,88.27,37.28,89.7,35.59,87.8Z"/><path class="cls-3" d="M60.16,76.92c-5.51.08-9.49,12.15-14.7,14-2.39.82-9.61-1.33-10.4-3.73-1-3.1.9-10,3.31-11.73C41,73.57,47.1,75,50.26,74.34c2.32-.45,6.38-3.74,10.27-3.5,2.57.17,8.38,3.65,8.08,3.53,0,0-12.26-8.08-17.08-10.09C48.43,63,40.6,64,38.77,61.18s1.31-10.18,4-12.46,9.83-3.4,12.78-1.34C57.9,49,57.19,56,58.81,58.32c2.37,3.46,9.13,10.06,13.33,10.21,2.18.08,5.68-3.72,7.65-4.21,2.37-.59,7.45.87,7.52,1.07,0,0-7.27,3.92-7,14.11.18,6.44,5.49,10.73,9,12.72a11.45,11.45,0,0,0,10,1,8.72,8.72,0,0,0,1.7,8.2c2.88,3.37,6,3.1,10.64,2.83a24.26,24.26,0,0,0,10.11-3c4.82-2.66,9.54-6.56,16.15-8.62,3.56-1.12,6.7-.66,8.14,1,2,2.33,1.51,6.21,2.27,8.08a7,7,0,0,0,4.43,4.07,31.94,31.94,0,0,0-10.68,8.38c-2.4,3-7.11,7.45-9,8.42-2.13,1.11-5.11,2.35-5.11,2.35v-5.74c-2.14-6-8.47-5.9-10.85-6C105.4,112.82,104,117.8,104,117.8s-2.78-3.55-5.19-4.52c-2-.81-6.42-3.37-7.41-3.94-2.73-1.54-7.11-4.26-9-6.56-3.33-4-8.15-14.62-11.75-18.3C69.23,83,64.65,76.86,60.16,76.92Z"/><path class="cls-2" d="M22.33,131.89l24.33-7.83s-.67-6.64.67-8.23c1.72-2,8.07-3.84,10.4-2.53,1.1.63,2.6,5.35,2.6,5.35a30.61,30.61,0,0,1,5.29,4.63c4.21,5.36,9.81,16.72,11.91,23.95.65,2.24,1.16,6.48-3,8.66-3.63,1.91-7.65.24-9.84-1-2.34-1.36-8.28-8.7-8.28-8.7s-2,5-6.31,5a7.32,7.32,0,0,1-6.73-4.23l-7.21,2.35s1.29,4.78-3.9,7.25c-3.27,1.56-6.94-.72-6.94-.72s-1,10.49-3.26,13.34c-1.44,1.79-5.56,4.19-8.06,3.68-3.53-.73-5-3.66-6.07-5.89-1.62-3.38-1.13-11.7-2.32-15.24A28,28,0,0,1,4,141.17a16.34,16.34,0,0,1,3.35-7.79s-.6-3.93,0-4.91c1.31-2,6.79-3.85,9.16-3.27S22.33,131.89,22.33,131.89Zm4.32,13.39a6.09,6.09,0,1,0,8.36,2A6.08,6.08,0,0,0,26.65,145.28Zm20.24-5.54a6.09,6.09,0,1,0,8.36,2A6.09,6.09,0,0,0,46.89,139.74ZM9.77,132.47A11.32,11.32,0,0,0,6,148c3.24,5.34,10.69,8.36,17.7,3.22a5.46,5.46,0,0,1,1.1-4.16,10.29,10.29,0,0,1,2.86-2.38c.87-3.82-1.48-7.82-2-8.67C22.4,130.68,15.11,129.24,9.77,132.47Zm55.85-9.19a11.31,11.31,0,0,0-15.83-2.21c-5,3.77-7.24,11.48-1.42,17.93a5.69,5.69,0,0,1,4.5.56,8.46,8.46,0,0,1,2.43,2.31c3.9.48,7.61-1.85,8.4-2.45C68.68,135.66,69.38,128.26,65.62,123.28Zm-11.4.64a2.43,2.43,0,1,0,3.34.82A2.44,2.44,0,0,0,54.22,123.92ZM61,126.71a2.43,2.43,0,1,0,3.34.82A2.42,2.42,0,0,0,61,126.71Zm-3.41,6.18a2.43,2.43,0,1,0,3.33.82A2.43,2.43,0,0,0,57.55,132.89Zm-6.5-2.71a2.43,2.43,0,1,0,3.33.82A2.43,2.43,0,0,0,51.05,130.18ZM12.6,139.51c.55.54,2.13,1.45,2.87,1.21S17,138.78,17.08,138A8.86,8.86,0,0,0,16,135.23a11.33,11.33,0,0,0-2.53.57,6.06,6.06,0,0,0-2,1.24A9.87,9.87,0,0,0,12.6,139.51Zm6.79,6.27c-.53-.57-2.06-1.56-2.81-1.36s-1.64,1.87-1.75,2.66a9,9,0,0,0,.93,2.8,11.53,11.53,0,0,0,2.56-.44,6.17,6.17,0,0,0,2.05-1.14A9.83,9.83,0,0,0,19.39,145.78Zm-.32-6.59c-.51.59-1.32,2.21-1,2.94s2,1.42,2.84,1.44a8.89,8.89,0,0,0,2.68-1.24,11.32,11.32,0,0,0-.73-2.49,5.91,5.91,0,0,0-1.36-1.91A9.64,9.64,0,0,0,19.07,139.19Zm-6.38,6.87c.59-.51,1.63-2,1.46-2.76s-1.82-1.7-2.6-1.83a8.85,8.85,0,0,0-2.83.83,11.5,11.5,0,0,0,.35,2.57A6,6,0,0,0,10.14,147,9.69,9.69,0,0,0,12.69,146.06Zm15.39-15.9,3.24,10.17,11.4-3.84-3-10.19Z"/><line class="cls-2" x1="176.79" y1="219.73" x2="182.91" y2="219.85"/><path class="cls-2" d="M180,225.88l7.41-14.78-.8-49.37s-2.47-4.66-7.27-4.52a7.61,7.61,0,0,0-7.3,5.63l.16,48.68Z"/><line class="cls-2" x1="172.1" y1="167.72" x2="186.75" y2="167.44"/><line class="cls-2" x1="177.13" y1="204.56" x2="176.92" y2="173.63"/><line class="cls-2" x1="172.64" y1="211.31" x2="187.45" y2="211.1"/><line class="cls-2" x1="182.42" y1="204.74" x2="182.22" y2="173.8"/><path class="cls-2" d="M214.16,117.61s23.67,2.46,23.81,24.5c.09,13-9,16.6-11,21.95-.89,2.45-.91,8.27-.91,8.27H214.16Z"/><path class="cls-2" d="M214.16,152.16s7.3,1.31,7.3-3.93-7.3-4.12-7.3-4.12Z"/><path class="cls-2" d="M199.36,173.23h29.75s.56,6.31-.44,7.05-3,.77-3.81,2.1,1.24,5,.2,6.23h-22c-.88-1.3.87-4.64.13-6-.61-1.14-3.7-1.75-4.31-2.9C198.14,178.27,198.14,174.28,199.36,173.23Z"/><path class="cls-2" d="M207.7,188.64s.75,5,3.55,6.27a6.34,6.34,0,0,0,6.18-.38c2.35-1.66,2.67-5.92,2.67-5.92Z"/><polygon class="cls-2" points="209.45 121.42 209.45 135.75 201.3 132.47 197.39 141.86 209.45 141.97 209.5 151.12 204.49 151.1 204.29 158.17 209.45 158.13 209.45 173.04 203.08 173.04 203.08 163.74 198.49 163.56 197.28 160.24 200.61 158.32 197.93 149.98 192.41 149.89 190.28 140.69 192.71 137.26 192.69 130.13 198.12 124.7 201.82 127.37 202.24 122.64 209.45 121.42"/><line class="cls-2" x1="192.63" y1="137.14" x2="199.17" y2="137.13"/><line class="cls-2" x1="191.17" y1="144.54" x2="199.89" y2="146.49"/><circle class="cls-2" cx="191.1" cy="151.12" r="1.38"/><circle class="cls-2" cx="210.57" cy="152.67" r="1.38"/><circle class="cls-2" cx="210.57" cy="119.81" r="1.38"/><circle class="cls-2" cx="202.8" cy="129.35" r="1.38"/><line class="cls-2" x1="196.29" y1="157.75" x2="198.65" y2="163.98"/><circle class="cls-2" cx="204.39" cy="162.55" r="1.38"/><circle class="cls-2" cx="195.69" cy="156.48" r="1.38"/><circle class="cls-2" cx="201.27" cy="146.9" r="1.38"/><circle class="cls-2" cx="201.02" cy="121.42" r="1.38"/><path class="cls-2" d="M130.78,49c3.46-.37,5-4.53,5-4.53s3.39,0,4.92-1.85c1.36-1.67,1.53-5.1,1.53-5.1A7.08,7.08,0,0,0,145,33.71a6,6,0,0,0-.73-4.73,14,14,0,0,0,.3-5.35c-.43-2.2-2.92-3.28-2.92-3.28a5.6,5.6,0,0,0,.27-4.23c-.47-1.81-3.22-2.52-3.22-2.52a3.59,3.59,0,0,0,0-4.26,8.2,8.2,0,0,0-2.56-1.75s-1.57-5.29-6.57-5.35c-2.69,0-4.85,3.13-4.85,3.13V45.2S126.64,49.4,130.78,49Z"/><path class="cls-2" d="M135.63,23.13a20.38,20.38,0,0,1,.46-6,7,7,0,0,1,2.63-3.52,6.9,6.9,0,0,0-2.63,3.52A25.35,25.35,0,0,0,135.63,23.13Z"/><path class="cls-2" d="M131.08,19.35a3,3,0,0,0,2.26,1.12,2.91,2.91,0,0,0,2.27-.63,4.28,4.28,0,0,1-2.15.63A5.34,5.34,0,0,1,131.08,19.35Z"/><path class="cls-2" d="M132.33,30.48c.31-.74-1,2-.12,3.2.55.8,1.91,1,4.62,1.4a8.21,8.21,0,0,1,2.61.51,9.82,9.82,0,0,1,2.66,2.07,7.16,7.16,0,0,0-2.66-2.07,6.14,6.14,0,0,0-2.52-.56c-2.56-.34-4.15-.57-4.71-1.35C131.38,32.53,132.26,30.64,132.33,30.48Z"/><path class="cls-2" d="M137.55,28.65a8,8,0,0,0,3.64.84,7.53,7.53,0,0,0,3-.4,9.94,9.94,0,0,1-3,.4A10.91,10.91,0,0,1,137.55,28.65Z"/><path class="cls-2" d="M136,7.61a8.09,8.09,0,0,0-3.6,1A7.6,7.6,0,0,0,130,10.37a10.17,10.17,0,0,1,2.41-1.76A11.46,11.46,0,0,1,136,7.61Z"/><path class="cls-2" d="M130.9,24.71a7,7,0,0,0-3.71.63,6.09,6.09,0,0,0-2.45,1.76,7.5,7.5,0,0,1,2.45-1.76A8.83,8.83,0,0,1,130.9,24.71Z"/><path class="cls-2" d="M124.89,13a7.08,7.08,0,0,0,3.4,1.58,6.74,6.74,0,0,0,3.43-.31,7.65,7.65,0,0,1-3.43.31A9.2,9.2,0,0,1,124.89,13Z"/><path class="cls-2" d="M131,43.4c0-.06-1.41-.15-2.73,1.43a5.29,5.29,0,0,0-1.26,2.66,6.13,6.13,0,0,1,1.26-2.66A3.32,3.32,0,0,1,131,43.4Z"/><path class="cls-2" d="M129.73,37.34c0-.09-.62-.42-2.54.28a6.7,6.7,0,0,0-2.77,2.05,7.63,7.63,0,0,1,2.77-2.05C129.32,36.88,129.74,37.41,129.73,37.34Z"/><path class="cls-2" d="M136.19,44.27a4.94,4.94,0,0,1-1.25-2.34,7.56,7.56,0,0,1-.13-2.32A17.67,17.67,0,0,0,135,42,5.62,5.62,0,0,0,136.19,44.27Z"/><path class="cls-2" d="M118.38,49c-3.46-.37-5-4.53-5-4.53s-3.39,0-4.92-1.85c-1.36-1.67-1.53-5.1-1.53-5.1a7.08,7.08,0,0,1-2.78-3.76,6,6,0,0,1,.73-4.73,14,14,0,0,1-.3-5.35c.43-2.2,2.92-3.28,2.92-3.28a5.6,5.6,0,0,1-.27-4.23c.47-1.81,3.22-2.52,3.22-2.52a3.59,3.59,0,0,1,0-4.26A8.2,8.2,0,0,1,113,7.59s1.57-5.29,6.57-5.35c2.69,0,4.85,3.13,4.85,3.13V45.2S122.52,49.4,118.38,49Z"/><path class="cls-2" d="M113.53,23.13a20.38,20.38,0,0,0-.46-6,7,7,0,0,0-2.63-3.52,6.9,6.9,0,0,1,2.63,3.52A25.35,25.35,0,0,1,113.53,23.13Z"/><path class="cls-2" d="M118.08,19.35a3,3,0,0,1-2.26,1.12,2.91,2.91,0,0,1-2.27-.63,4.28,4.28,0,0,0,2.15.63A5.34,5.34,0,0,0,118.08,19.35Z"/><path class="cls-2" d="M111.61,28.65a8,8,0,0,1-3.64.84,7.53,7.53,0,0,1-3-.4,9.94,9.94,0,0,0,3,.4A10.91,10.91,0,0,0,111.61,28.65Z"/><path class="cls-2" d="M113.2,7.61a8.09,8.09,0,0,1,3.6,1,7.6,7.6,0,0,1,2.41,1.76,10.17,10.17,0,0,0-2.41-1.76A11.46,11.46,0,0,0,113.2,7.61Z"/><path class="cls-2" d="M118.62,14.67a7.15,7.15,0,0,1,3.6,1.11,6.28,6.28,0,0,1,2.2,2.06,7.53,7.53,0,0,0-2.2-2.06A9,9,0,0,0,118.62,14.67Z"/><path class="cls-2" d="M124.42,27.81a7.11,7.11,0,0,1-3.4,1.57,6.77,6.77,0,0,1-3.43-.3,7.73,7.73,0,0,0,3.43.3A9.1,9.1,0,0,0,124.42,27.81Z"/><path class="cls-2" d="M118.12,43.4c0-.06,1.41-.15,2.73,1.43a5.29,5.29,0,0,1,1.26,2.66,6.13,6.13,0,0,0-1.26-2.66A3.32,3.32,0,0,0,118.12,43.4Z"/><path class="cls-2" d="M113,44.27a4.94,4.94,0,0,0,1.25-2.34,7.56,7.56,0,0,0,.13-2.32,17.67,17.67,0,0,1-.19,2.39A5.62,5.62,0,0,1,113,44.27Z"/><path class="cls-2" d="M107,37.66c-.07,0-.06-.74,1.51-2.06a6.66,6.66,0,0,1,3.15-1.38,7.55,7.55,0,0,0-3.15,1.38C106.75,37.08,107,37.71,107,37.66Z"/><path class="cls-2" d="M115.88,32.56c.09.46.23,1.35,2.38,3.35,1.54,1.43,6.1.48,6.1.48s-4.31,1-6.1-.48A7.65,7.65,0,0,1,115.88,32.56Z"/><rect class="cls-2" x="33.25" y="160.61" width="21.31" height="21.31" rx="7.83" transform="translate(-2.64 0.7) rotate(-0.89)"/><rect class="cls-2" x="36.93" y="164.3" width="13.94" height="13.94" rx="6.97" transform="translate(-2.64 0.7) rotate(-0.89)"/><circle class="cls-2" cx="43.58" cy="170.56" r="3.62"/><path class="cls-2" d="M35.17,201.39c2.89.23,3.31-11.67,3.31-11.67l2.23,16.51s-4.6,1.38-4.52,2.7c.1,1.58,4.23,2.75,5.82,2.59,1.13-.11,3.78-.06,3.84-1.2.24-4.2-2.41-14.19-.27-14.33s1.37,12.33,4.35,14.82c1.13.94,5.43-.2,5.43-.2s4.18-1.52,4.08-2.75c-.14-1.84-6.7-3.13-6.7-3.13l-1.37-16.4s1.89,12.18,5,11.54c2.9-.6.84-9.66-.58-12.26a17,17,0,0,0-2-2.43l-17.44,1.19a5.84,5.84,0,0,0-1.5,1.73C33.56,190.89,32.13,201.15,35.17,201.39Z"/><path class="cls-2" d="M17.51,181.32l5.66-6.06a1.22,1.22,0,0,1,2,.24l4.22,7.7a1.82,1.82,0,0,1-.27,2.1l-5.58,5.9a1.5,1.5,0,0,1-2.44-.34l-3.84-7.45A1.85,1.85,0,0,1,17.51,181.32Z"/><path class="cls-2" d="M22,183.05l1.59-1.84a.32.32,0,0,1,.54.06l1.14,2.3a.58.58,0,0,1-.09.63L23.63,186a.39.39,0,0,1-.67-.1l-1-2.22A.58.58,0,0,1,22,183.05Z"/><path class="cls-2" d="M99.58,235.85s4.85-8.25,14.38-8.25c7.82,0,14.71,8.25,14.71,8.25A16.92,16.92,0,0,1,114.13,244C104.34,244,99.58,235.85,99.58,235.85Z"/><circle class="cls-2" cx="113.74" cy="235.81" r="5.87"/><circle class="cls-2" cx="113.74" cy="235.48" r="1.45"/><path class="cls-2" d="M123.11,230.9c-.85-.63-4.23-2.29-4.23-2.29-.36-3.39,10.68-8.45,10.68-8.45s.68,12.68-2.65,13.85C126.91,234,124.16,231.68,123.11,230.9Z"/><path class="cls-2" d="M104.45,230.74a31.49,31.49,0,0,0-3.78,3.27c-3.19-1.19-3.06-14.64-3.06-14.64s11.18,5.38,10.74,8.88C108.35,228.25,105.62,230.14,104.45,230.74Z"/><path class="cls-2" d="M114,227.6a50.27,50.27,0,0,0-5.14.65c-2.19-2.6,5.09-13.32,5.09-13.32s6.69,10.46,4.6,13.3C118.51,228.23,115.26,227.66,114,227.6Z"/><path class="cls-2" d="M102,221.77c-.87-2,2.52-8.54,2.52-8.54s6.45,3.72,6.8,6c0,0-2.5,4.17-3,7.51A18.64,18.64,0,0,0,102,221.77Z"/><path class="cls-2" d="M116.46,219.27c.26-2.16,6.5-6.09,6.5-6.09s3.68,6.47,2.85,8.58c0,0-4.27,2.32-6.35,5A18.76,18.76,0,0,0,116.46,219.27Z"/><line class="cls-4" x1="113.74" y1="221.22" x2="113.74" y2="226.69"/><line class="cls-4" x1="113.9" y1="230.16" x2="113.93" y2="233.32"/><line class="cls-4" x1="125.84" y1="226.74" x2="123.43" y2="230.91"/><line class="cls-4" x1="101.82" y1="226.69" x2="104.3" y2="230.36"/><path class="cls-2" d="M99.58,235.85l-6.68-8s5.14-.81,5.19-.42c.32,2.53,1.49,6.61,2.19,6.74Z"/><path class="cls-2" d="M129.1,235.6l6.67-8s-5.13-.81-5.18-.42c-.32,2.52-1.49,6.61-2.19,6.74Z"/><path class="cls-2" d="M109.33,216.27c-.62-2.28,4.71-8.53,4.71-8.53s4.69,5.86,4.92,8.25c0,.11-2.7,3-2.7,3l-2.35-4.1-2.3,3.72Z"/><line class="cls-4" x1="112.24" y1="237.12" x2="110.01" y2="239.35"/><line class="cls-4" x1="108.66" y1="235.6" x2="111.82" y2="235.6"/><line class="cls-4" x1="110.36" y1="232.06" x2="112.6" y2="234.29"/><line class="cls-4" x1="113.9" y1="237.77" x2="113.93" y2="240.93"/><line class="cls-4" x1="115.54" y1="237.02" x2="117.78" y2="239.25"/><line class="cls-4" x1="119.13" y1="235.5" x2="115.97" y2="235.5"/><line class="cls-4" x1="117.42" y1="231.95" x2="115.19" y2="234.19"/><path class="cls-2" d="M198.25,216.23c0-1,0-10.43,0-10.43a.59.59,0,0,1,.59-.59h11.27c.67,0-8.49,0-11.31,0a.55.55,0,0,0-.55.55S198.23,217.51,198.25,216.23Z"/><path class="cls-2" d="M194.89,218.37c0-1.54,0-15.68,0-15.68a.89.89,0,0,1,.89-.89h17c1,0-17,0-17,0a.83.83,0,0,0-.83.83S194.87,220.3,194.89,218.37Z"/><path class="cls-2" d="M202.1,213.16v-4.57a.26.26,0,0,1,.26-.26c1.23,0,6.18,0,4.94,0-.88,0-3.72,0-5,0a.24.24,0,0,0-.24.24S202.09,213.73,202.1,213.16Z"/><path class="cls-2" d="M145.49,237.32c5.62,0-1.58-35.93,1.65-40.54,2-2.9,11.8-3.63,14.39-1.21,1.78,1.68-.44,8.44,3.65,7.88,2.81-.38,2.43-10.37,0-12.22-4.25-3.25-19.67-2.94-21.38.69C142.78,194.1,141.05,237.33,145.49,237.32Z"/><path class="cls-2" d="M164,203.61c2.06.21-5.52-1.51-8.33.84-2.38,2,1.44,32,1.35,31.29-.12-1-3.48-29.61-1.13-31.36C158.81,202.21,164,203.61,164,203.61Z"/><circle class="cls-2" cx="153.92" cy="234.9" r="2.8"/><circle class="cls-2" cx="149.99" cy="201.8" r="0.52"/><circle class="cls-2" cx="158.13" cy="199.28" r="0.52"/><circle class="cls-2" cx="153.92" cy="199.79" r="0.52"/><circle class="cls-2" cx="150.18" cy="206.79" r="0.52"/><circle class="cls-2" cx="150.69" cy="211.63" r="0.52"/><circle class="cls-2" cx="151.11" cy="216.47" r="0.52"/><circle class="cls-2" cx="152.14" cy="227.12" r="0.52"/><circle class="cls-2" cx="151.63" cy="221.63" r="0.52"/><rect class="cls-2" x="159.88" y="207.28" width="4.73" height="26.96" rx="1.7" transform="translate(-13.22 10.35) rotate(-3.51)"/><polyline class="cls-2" points="11.89 105.36 19.14 103.66 18.22 99.61 7.65 102.05 9.65 110.57 24.57 106.86 22.39 97.61"/><polyline class="cls-2" points="35.25 99.88 28 101.58 27.01 97.54 37.57 95.02 39.57 103.54 24.57 106.86 22.39 97.61"/><polyline class="cls-2" points="12.96 110.28 14.02 114.79 17.26 114.03 18.2 118.02 22.19 117.08 23.19 121.36 32.68 119.13 31.71 115.03 35.91 113.92 34.95 109.87 38.21 109.17 37.13 104.6"/><path class="cls-2" d="M57.25,226.87a12.09,12.09,0,0,1,21.6,10.88"/><path class="cls-2" d="M60.37,228.52a8.63,8.63,0,1,1,15.41,7.76"/><path class="cls-2" d="M63.29,229.92a5.32,5.32,0,0,1,9.51,4.79"/><polyline class="cls-2" points="55.95 224.86 52.14 221.88 54.8 218.1 58.72 221.18"/><polyline class="cls-2" points="81.21 225.99 85.97 225.13 87.03 229.62 82.11 230.51"/><polyline class="cls-2" points="76.35 220.37 79.75 216.93 83.2 220 79.68 223.55"/><polyline class="cls-2" points="69.22 218.08 70.4 213.39 74.93 214.28 73.71 219.12"/><polyline class="cls-2" points="61.29 219.5 60.1 214.82 64.51 213.45 65.74 218.29"/><polyline class="cls-2" points="82.16 233.39 86.86 234.53 86.01 239.06 81.16 237.89"/><path class="cls-2" d="M63.53,197.84l1.58-8.7a1.29,1.29,0,0,1,1.89-.92l8.23,4.47a1.91,1.91,0,0,1,1,2l-1.59,8.51a1.6,1.6,0,0,1-2.39,1.1l-7.74-4.47A1.94,1.94,0,0,1,63.53,197.84Z"/><path class="cls-2" d="M68.57,196.79l.36-2.58a.34.34,0,0,1,.52-.25l2.34,1.4a.62.62,0,0,1,.29.62l-.36,2.52a.42.42,0,0,1-.66.3l-2.21-1.4A.61.61,0,0,1,68.57,196.79Z"/><polygon class="cls-2" points="180.19 19.14 180 29.01 164.74 43.36 149.7 43.38 149.68 19.17 180.19 19.14"/><polyline class="cls-2" points="179.76 24.47 154.41 24.49 154.43 38.83 162.68 38.83 173.22 28.79 159.62 28.7 159.65 34.63"/><line class="cls-2" x1="159.02" y1="34.05" x2="163.16" y2="34"/><path class="cls-2" d="M160.63,16.31l-8,.1a.46.46,0,0,1-.45-.47c0-2.27-.1-8.78-.1-9.07,0-.54.07,6.83.1,9.1a.43.43,0,0,0,.42.44S161.61,16.31,160.63,16.31Z"/><path class="cls-2" d="M162.29,19l-12,.15a.69.69,0,0,1-.68-.7s-.14-13.21-.15-13.65c0-.81.15,13.69.15,13.69a.64.64,0,0,0,.64.66S163.77,19,162.29,19Z"/><path class="cls-2" d="M158.25,13.24l-3.09,0c-.11,0-.16-.19-.16-.19,0-1-.11-4.95-.11-3.95,0,.71,0,3,0,4,0,.13.19.18.29.18Z"/><ellipse class="cls-2" cx="162.18" cy="12.96" rx="3.29" ry="3.46"/><path class="cls-2" d="M179.5,16.1l-9.95.17a1.38,1.38,0,0,1-1.34-1.42h0a1.38,1.38,0,0,1,1.34-1.41l5-.11"/><polygon class="cls-2" points="67.46 18.2 67.66 28.08 82.91 42.43 97.95 42.44 97.97 18.23 67.46 18.2"/><polyline class="cls-2" points="67.9 23.54 93.24 23.56 93.23 37.9 84.97 37.89 74.44 27.86 88.04 27.77 88.01 33.69"/><line class="cls-2" x1="88.64" y1="33.12" x2="84.49" y2="33.07"/><path class="cls-2" d="M87,15.38l8,.1a.47.47,0,0,0,.46-.47c0-2.27.09-8.79.1-9.07,0-.54-.07,6.82-.1,9.1a.43.43,0,0,1-.42.44S86.05,15.38,87,15.38Z"/><path class="cls-2" d="M85.36,18.06c1.18,0,12,.14,12,.14a.69.69,0,0,0,.69-.7s.14-13.21.15-13.64c0-.81-.15,13.69-.15,13.69a.65.65,0,0,1-.64.65Z"/><path class="cls-2" d="M89.41,12.31l3.09,0c.1,0,.15-.19.15-.19,0-1,.11-4.94.12-3.95,0,.72,0,3,0,4,0,.14-.19.19-.29.19Z"/><ellipse class="cls-2" cx="85.48" cy="12.02" rx="3.29" ry="3.46"/><path class="cls-2" d="M68.16,15.17l9.94.16a1.38,1.38,0,0,0,1.34-1.41h0A1.38,1.38,0,0,0,78.1,12.5l-5-.11"/><path class="cls-2" d="M64,31.25s-2.79,0-3.38-.61c-1.49-1.59.16-7.9-3.13-7.91s-2.14,6.18-3.63,7.76c-1.31,1.4-5.08-.18-6.49,1C45.78,32.91,47,39.7,47,39.7s15.47,3.17,15.28-2.56c-.12-3.48-8-1.8-8-1.8"/><path class="cls-2" d="M183.06,32.16s2.79,0,3.37-.61c1.5-1.6-.16-7.91,3.13-7.91s2.15,6.17,3.63,7.75c1.32,1.4,5.08-.18,6.5,1,1.62,1.39.38,8.18.38,8.18S184.6,43.77,184.79,38c.11-3.48,7.94-1.8,7.94-1.8"/><path class="cls-2" d="M38.39,35.38a64.26,64.26,0,0,0-8.06,9c-2.14,3-4,7.29-5.4,9.59-.92,1.49,3-6,5.4-9.59C32.4,41.23,39.85,33.94,38.39,35.38Z"/><path class="cls-2" d="M41.1,39.28a55.56,55.56,0,0,0-7,7.8c-1.85,2.6-3.45,6.34-4.68,8.34a79.51,79.51,0,0,1,4.68-8.34C35.91,44.36,42.37,38,41.1,39.28Z"/><path class="cls-2" d="M44.54,42.64a50.38,50.38,0,0,0-6.24,7c-1.66,2.35-3.08,5.73-4.18,7.54a69.62,69.62,0,0,1,4.18-7.54C39.91,47.24,45.67,41.51,44.54,42.64Z"/><path class="cls-2" d="M14.85,65s5.88-6.62,14.53-4.91c7.11,1.4,11.88,10.13,11.88,10.13A15.65,15.65,0,0,1,26.59,75C17.7,73.25,14.85,65,14.85,65Z"/><circle class="cls-2" cx="27.71" cy="67.51" r="5.43"/><circle class="cls-2" cx="27.73" cy="67.21" r="1.34"/><path class="cls-2" d="M12.87,71.29c.82.63,6,5.53,9.12,7,3.32,1.56,15.19,1.82,12,1.67-2.34-.1-8.92-.2-12.32-1.8C18.52,76.64,10.1,69.17,12.87,71.29Z"/><line class="cls-2" x1="21.73" y1="78.01" x2="19.24" y2="84.95"/><circle class="cls-2" cx="18.33" cy="87.5" r="3.22"/><line class="cls-2" x1="14.18" y1="73.28" x2="11.98" y2="77.61"/><circle class="cls-2" cx="10.77" cy="79.98" r="2.76"/><line class="cls-2" x1="30.31" y1="79.61" x2="29.51" y2="84.39"/><circle class="cls-2" cx="29.07" cy="87.02" r="2.76"/><path class="cls-2" d="M212.55,59.44a63.69,63.69,0,0,0,3.24-8,11.22,11.22,0,0,0-1.32-8.26l-8.11,4,7.45,14.93-8,3.91,6.29,12.07,13.93-6.77-3.48-6.72-10.2,5,1.46,2.91L218.92,70"/><polyline class="cls-2" points="219.93 82.89 217.53 84.17 219.19 87.41 224.91 84.39 217.93 70.23"/><line class="cls-2" x1="214.1" y1="62.7" x2="216.76" y2="67.72"/><text class="cls-5" transform="translate(288.25 158.69)">Itzana</text></g></g></svg>